G04 #@! TF.FileFunction,Paste,Top*
%FSLAX46Y46*%
G04 Gerber Fmt 4.6, Leading zero omitted, Abs format (unit mm)*
G04 Created by KiCad (PCBNEW 4.0.7) date 05/22/18 09:46:34*
%MOMM*%
%LPD*%
G01*
G04 APERTURE LIST*
%ADD10C,0.100000*%
%ADD11R,1.500000X1.250000*%
%ADD12R,1.250000X1.500000*%
%ADD13R,2.500000X2.300000*%
%ADD14R,0.900000X0.800000*%
%ADD15R,0.600000X0.800000*%
%ADD16R,0.700000X0.300000*%
%ADD17R,3.600000X2.700000*%
%ADD18R,1.500000X1.300000*%
%ADD19R,1.300000X1.500000*%
%ADD20R,1.000000X0.600000*%
%ADD21R,1.000000X0.450000*%
%ADD22R,0.600000X1.000000*%
%ADD23R,0.450000X1.000000*%
%ADD24R,1.500000X0.550000*%
%ADD25R,0.550000X1.500000*%
%ADD26R,0.890000X0.420000*%
%ADD27R,0.504000X0.564000*%
%ADD28R,1.800000X1.200000*%
G04 APERTURE END LIST*
D10*
D11*
X124911800Y-43053000D03*
X127411800Y-43053000D03*
D12*
X108458000Y-34955800D03*
X108458000Y-32455800D03*
X117119400Y-32455800D03*
X117119400Y-34955800D03*
X112242600Y-54945600D03*
X112242600Y-52445600D03*
D11*
X120847800Y-44780200D03*
X123347800Y-44780200D03*
X103053200Y-50800000D03*
X100553200Y-50800000D03*
D12*
X120954800Y-35580000D03*
X120954800Y-38080000D03*
X87096600Y-56052400D03*
X87096600Y-58552400D03*
D11*
X90886600Y-47879000D03*
X88386600Y-47879000D03*
X120619200Y-53136800D03*
X123119200Y-53136800D03*
D12*
X124917200Y-56357200D03*
X124917200Y-58857200D03*
D11*
X88539000Y-45694600D03*
X91039000Y-45694600D03*
X91013600Y-43942000D03*
X88513600Y-43942000D03*
X88361200Y-49707800D03*
X90861200Y-49707800D03*
D12*
X118846600Y-34879600D03*
X118846600Y-32379600D03*
X98221800Y-54045800D03*
X98221800Y-56545800D03*
X102997000Y-38196200D03*
X102997000Y-40696200D03*
D11*
X103256400Y-43180000D03*
X100756400Y-43180000D03*
D12*
X114071400Y-52445600D03*
X114071400Y-54945600D03*
X115951000Y-52394800D03*
X115951000Y-54894800D03*
D13*
X91118800Y-57175400D03*
X95418800Y-57175400D03*
D14*
X86496400Y-47051000D03*
X86496400Y-45151000D03*
X84496400Y-46101000D03*
D15*
X122693800Y-48285400D03*
X120993800Y-48285400D03*
X123252600Y-51612800D03*
X121552600Y-51612800D03*
D13*
X91144200Y-52882800D03*
X95444200Y-52882800D03*
D14*
X86267800Y-52359600D03*
X86267800Y-50459600D03*
X84267800Y-51409600D03*
D16*
X133867200Y-39402200D03*
X133867200Y-38902200D03*
X133867200Y-38402200D03*
X133867200Y-37902200D03*
X133867200Y-37402200D03*
X133867200Y-36902200D03*
X133867200Y-36402200D03*
X133867200Y-33902200D03*
X133867200Y-34902200D03*
X133867200Y-35402200D03*
X133867200Y-35902200D03*
X133867200Y-34402200D03*
D17*
X96012000Y-33111800D03*
X96012000Y-41411800D03*
D18*
X124964200Y-41046400D03*
X127664200Y-41046400D03*
D17*
X84912200Y-33188000D03*
X84912200Y-41488000D03*
D18*
X123447800Y-46634400D03*
X120747800Y-46634400D03*
D19*
X102260400Y-56569600D03*
X102260400Y-53869600D03*
D18*
X126267200Y-32689800D03*
X123567200Y-32689800D03*
D19*
X100126800Y-56671200D03*
X100126800Y-53971200D03*
X110388400Y-56163200D03*
X110388400Y-53463200D03*
D18*
X103204000Y-46863000D03*
X100504000Y-46863000D03*
X103204000Y-48768000D03*
X100504000Y-48768000D03*
X113254800Y-58674000D03*
X115954800Y-58674000D03*
X122127000Y-58724800D03*
X119427000Y-58724800D03*
X113254800Y-56946800D03*
X115954800Y-56946800D03*
X123346200Y-49936400D03*
X120646200Y-49936400D03*
X111248200Y-36703000D03*
X113948200Y-36703000D03*
X122101600Y-56794400D03*
X119401600Y-56794400D03*
D20*
X108473600Y-58365000D03*
X104073600Y-58365000D03*
X104073600Y-54665000D03*
X108473600Y-54665000D03*
D21*
X106273600Y-59040000D03*
X106273600Y-53990000D03*
D22*
X80801600Y-58689600D03*
X80801600Y-54289600D03*
X84501600Y-54289600D03*
X84501600Y-58689600D03*
D23*
X80126600Y-56489600D03*
X85176600Y-56489600D03*
D20*
X131359000Y-58619000D03*
X126959000Y-58619000D03*
X126959000Y-54919000D03*
X131359000Y-54919000D03*
D21*
X129159000Y-59294000D03*
X129159000Y-54244000D03*
D24*
X117917200Y-48450000D03*
X117917200Y-47650000D03*
X117917200Y-46850000D03*
X117917200Y-46050000D03*
X117917200Y-45250000D03*
X117917200Y-44450000D03*
X117917200Y-43650000D03*
X117917200Y-42850000D03*
X117917200Y-42050000D03*
X117917200Y-41250000D03*
X117917200Y-40450000D03*
D25*
X116217200Y-38750000D03*
X115417200Y-38750000D03*
X114617200Y-38750000D03*
X113817200Y-38750000D03*
X113017200Y-38750000D03*
X112217200Y-38750000D03*
X111417200Y-38750000D03*
X110617200Y-38750000D03*
X109817200Y-38750000D03*
X109017200Y-38750000D03*
X108217200Y-38750000D03*
D24*
X106517200Y-40450000D03*
X106517200Y-41250000D03*
X106517200Y-42050000D03*
X106517200Y-42850000D03*
X106517200Y-43650000D03*
X106517200Y-44450000D03*
X106517200Y-45250000D03*
X106517200Y-46050000D03*
X106517200Y-46850000D03*
X106517200Y-47650000D03*
X106517200Y-48450000D03*
D25*
X108217200Y-50150000D03*
X109017200Y-50150000D03*
X109817200Y-50150000D03*
X110617200Y-50150000D03*
X111417200Y-50150000D03*
X112217200Y-50150000D03*
X113017200Y-50150000D03*
X113817200Y-50150000D03*
X114617200Y-50150000D03*
X115417200Y-50150000D03*
X116217200Y-50150000D03*
D26*
X97939200Y-49793800D03*
X97939200Y-49143800D03*
X97939200Y-48493800D03*
X97939200Y-47843800D03*
X93729200Y-47843800D03*
X93729200Y-48493800D03*
X93729200Y-49143800D03*
X93729200Y-49793800D03*
D27*
X95414200Y-48348800D03*
X95414200Y-49288800D03*
X96254200Y-48348800D03*
X96254200Y-49288800D03*
D26*
X98015400Y-46009200D03*
X98015400Y-45359200D03*
X98015400Y-44709200D03*
X98015400Y-44059200D03*
X93805400Y-44059200D03*
X93805400Y-44709200D03*
X93805400Y-45359200D03*
X93805400Y-46009200D03*
D27*
X95490400Y-44564200D03*
X95490400Y-45504200D03*
X96330400Y-44564200D03*
X96330400Y-45504200D03*
D28*
X110826800Y-34905800D03*
X114826800Y-34905800D03*
X114826800Y-32505800D03*
X110826800Y-32505800D03*
M02*
