G04 #@! TF.FileFunction,Copper,L2,Bot,Signal*
%FSLAX46Y46*%
G04 Gerber Fmt 4.6, Leading zero omitted, Abs format (unit mm)*
G04 Created by KiCad (PCBNEW 4.0.7) date 05/22/18 09:46:34*
%MOMM*%
%LPD*%
G01*
G04 APERTURE LIST*
%ADD10C,0.100000*%
%ADD11C,1.400000*%
%ADD12C,0.650000*%
%ADD13R,1.700000X1.700000*%
%ADD14O,1.700000X1.700000*%
%ADD15C,4.000500*%
%ADD16C,0.600000*%
%ADD17C,0.250000*%
%ADD18C,0.254000*%
G04 APERTURE END LIST*
D10*
D11*
X135777200Y-40782200D03*
X135777200Y-32522200D03*
X141727200Y-32162200D03*
X141727200Y-41142200D03*
D12*
X135177200Y-33852200D03*
X135177200Y-35452200D03*
X135177200Y-36252200D03*
X135177200Y-37052200D03*
X135177200Y-37852200D03*
X135177200Y-39452200D03*
X135877200Y-34252200D03*
X135877200Y-35052200D03*
X135877200Y-35852200D03*
X135877200Y-37452200D03*
X135877200Y-38252200D03*
X135877200Y-39052200D03*
D13*
X128727200Y-35483800D03*
D14*
X128727200Y-38023800D03*
X126187200Y-35483800D03*
X126187200Y-38023800D03*
X123647200Y-35483800D03*
X123647200Y-38023800D03*
D15*
X81534000Y-50342800D03*
X81534000Y-45821600D03*
X130302000Y-51028600D03*
X130149600Y-46685200D03*
D16*
X117297200Y-49479200D03*
X115468400Y-48666400D03*
X116763800Y-45237400D03*
X121208800Y-54838600D03*
X119659400Y-51181000D03*
X109702600Y-48691800D03*
X133400800Y-32181800D03*
X127025400Y-44297600D03*
X120167400Y-48336200D03*
X114808000Y-33705800D03*
X113842800Y-40843200D03*
X120218200Y-32588200D03*
X86004400Y-54889400D03*
X87985600Y-53009800D03*
X90144600Y-50977800D03*
X124739400Y-44831000D03*
X119303800Y-45364400D03*
X106045000Y-32537400D03*
X123774200Y-59309000D03*
X118160800Y-59105800D03*
X82448400Y-58674000D03*
X88544400Y-58699400D03*
X86791800Y-48488600D03*
X87325200Y-43764200D03*
X103962200Y-59309000D03*
X98323400Y-58216800D03*
X99491800Y-41300400D03*
X100253800Y-45237400D03*
X117754400Y-56794400D03*
X117475000Y-54838600D03*
X123647200Y-38023800D03*
X119634000Y-39293800D03*
X130911600Y-36652200D03*
X132181600Y-38023800D03*
X132588000Y-39725600D03*
X111607600Y-56286400D03*
X115671600Y-45872400D03*
X113944400Y-48107600D03*
X104673400Y-41681400D03*
X104648000Y-38760400D03*
X120065800Y-33909000D03*
X124841000Y-33578800D03*
X111226600Y-52070000D03*
X108229400Y-51333400D03*
X98679000Y-35991800D03*
X98653600Y-43103800D03*
X89662000Y-47853600D03*
X89789000Y-43078400D03*
X88595200Y-55016400D03*
X100380800Y-52578000D03*
X108305600Y-52171600D03*
X117246400Y-53695600D03*
X127660400Y-52755800D03*
X88747600Y-53797200D03*
X84023200Y-47574200D03*
X93218000Y-53086000D03*
X92938600Y-41579800D03*
X92811600Y-49174400D03*
X94716600Y-50266600D03*
X104800400Y-51917600D03*
X104876600Y-53263800D03*
X111175800Y-58674000D03*
X125272800Y-46634400D03*
X132969000Y-38303200D03*
X87604600Y-42214800D03*
X93218000Y-51714400D03*
X93573600Y-46939200D03*
X86868000Y-54178200D03*
X109880400Y-58826400D03*
X87299800Y-52298600D03*
X92583000Y-44069000D03*
X126212600Y-52933600D03*
X117322600Y-58648600D03*
X99060000Y-47879000D03*
X101879400Y-47929800D03*
D17*
X115468400Y-50088800D02*
X115468400Y-48666400D01*
X115468400Y-48666400D02*
X116484400Y-48666400D01*
X116484400Y-48666400D02*
X117297200Y-49479200D01*
X117297200Y-49479200D02*
X116484400Y-48666400D01*
X115468400Y-48666400D02*
X116738400Y-47396400D01*
X116738400Y-47396400D02*
X116738400Y-45262800D01*
X116738400Y-45262800D02*
X116763800Y-45237400D01*
X123444000Y-53340000D02*
X122707400Y-53340000D01*
X122707400Y-53340000D02*
X121208800Y-54838600D01*
X120980200Y-48361600D02*
X120192800Y-48361600D01*
X120192800Y-48361600D02*
X120980200Y-48361600D01*
X120192800Y-48361600D02*
X120167400Y-48336200D01*
X115925600Y-54914800D02*
X117398800Y-54914800D01*
X117398800Y-54914800D02*
X117475000Y-54838600D01*
X127482600Y-43840400D02*
X127025400Y-44297600D01*
X127482600Y-43840400D02*
X127482600Y-43180000D01*
X120192800Y-48361600D02*
X120167400Y-48336200D01*
X113715800Y-38989000D02*
X113715800Y-40716200D01*
X113715800Y-40716200D02*
X113842800Y-40843200D01*
X88112600Y-53009800D02*
X87985600Y-53009800D01*
X90144600Y-50977800D02*
X88112600Y-53009800D01*
X124790200Y-44881800D02*
X124815600Y-44881800D01*
X124739400Y-44831000D02*
X124790200Y-44881800D01*
X123494800Y-44881800D02*
X124815600Y-44881800D01*
X124815600Y-44881800D02*
X125857000Y-44881800D01*
X127482600Y-43256200D02*
X127482600Y-43180000D01*
X127482600Y-43180000D02*
X127482600Y-43154600D01*
X125857000Y-44881800D02*
X127482600Y-43256200D01*
X106045000Y-32537400D02*
X106045000Y-32512000D01*
X141727200Y-41142200D02*
X136137200Y-41142200D01*
X136137200Y-41142200D02*
X135177200Y-40182200D01*
X135177200Y-40182200D02*
X135177200Y-39452200D01*
X118364000Y-59309000D02*
X123774200Y-59309000D01*
X118160800Y-59105800D02*
X118364000Y-59309000D01*
X82448400Y-58674000D02*
X82473800Y-58699400D01*
X82473800Y-58699400D02*
X88544400Y-58699400D01*
X86791800Y-48488600D02*
X87325200Y-47955200D01*
X87325200Y-47955200D02*
X87325200Y-43764200D01*
X99415600Y-59309000D02*
X103962200Y-59309000D01*
X98323400Y-58216800D02*
X99415600Y-59309000D01*
X99491800Y-44475400D02*
X99491800Y-41300400D01*
X100253800Y-45237400D02*
X99491800Y-44475400D01*
X117754400Y-56794400D02*
X117475000Y-56515000D01*
X117475000Y-56515000D02*
X117475000Y-54838600D01*
X123647200Y-38023800D02*
X122377200Y-39293800D01*
X122377200Y-39293800D02*
X119634000Y-39293800D01*
X135177200Y-37852200D02*
X134461400Y-37852200D01*
X130911600Y-36753800D02*
X130911600Y-36652200D01*
X132181600Y-38023800D02*
X130911600Y-36753800D01*
X134461400Y-37852200D02*
X132588000Y-39725600D01*
X111226600Y-55905400D02*
X111226600Y-52070000D01*
X111607600Y-56286400D02*
X111226600Y-55905400D01*
X115214400Y-47955200D02*
X115671600Y-45872400D01*
X113944400Y-48107600D02*
X115214400Y-47955200D01*
X104673400Y-41681400D02*
X104648000Y-41656000D01*
X104648000Y-41656000D02*
X104648000Y-38760400D01*
X124510800Y-33909000D02*
X120065800Y-33909000D01*
X124841000Y-33578800D02*
X124510800Y-33909000D01*
X111226600Y-52070000D02*
X110490000Y-51333400D01*
X110490000Y-51333400D02*
X108229400Y-51333400D01*
X98679000Y-43078400D02*
X98679000Y-35991800D01*
X98653600Y-43103800D02*
X98679000Y-43078400D01*
X89662000Y-47853600D02*
X89789000Y-47726600D01*
X89789000Y-47726600D02*
X89789000Y-43078400D01*
X100380800Y-52578000D02*
X97434400Y-52578000D01*
X88646000Y-55067200D02*
X88595200Y-55016400D01*
X94945200Y-55067200D02*
X88646000Y-55067200D01*
X97434400Y-52578000D02*
X94945200Y-55067200D01*
X107899200Y-52578000D02*
X100380800Y-52578000D01*
X108305600Y-52171600D02*
X107899200Y-52578000D01*
X117246400Y-53365400D02*
X117246400Y-53695600D01*
X118745000Y-51866800D02*
X117246400Y-53365400D01*
X126771400Y-51866800D02*
X118745000Y-51866800D01*
X127660400Y-52755800D02*
X126771400Y-51866800D01*
X88747600Y-53797200D02*
X88696800Y-53746400D01*
X88696800Y-53746400D02*
X87731600Y-53746400D01*
X87731600Y-53746400D02*
X84023200Y-50038000D01*
X84023200Y-50038000D02*
X84023200Y-47574200D01*
X92811600Y-50139600D02*
X92811600Y-49174400D01*
X93929200Y-51257200D02*
X92811600Y-50139600D01*
X93929200Y-52374800D02*
X93929200Y-51257200D01*
X93218000Y-53086000D02*
X93929200Y-52374800D01*
X95072200Y-43713400D02*
X92938600Y-41579800D01*
X95072200Y-49098200D02*
X95072200Y-43713400D01*
X95046800Y-49123600D02*
X95072200Y-49098200D01*
X92862400Y-49123600D02*
X95046800Y-49123600D01*
X92811600Y-49174400D02*
X92862400Y-49123600D01*
X96189800Y-50266600D02*
X94716600Y-50266600D01*
X97840800Y-51917600D02*
X96189800Y-50266600D01*
X104800400Y-51917600D02*
X97840800Y-51917600D01*
X105765600Y-53263800D02*
X104876600Y-53263800D01*
X111175800Y-58674000D02*
X105765600Y-53263800D01*
X132969000Y-38303200D02*
X132515156Y-36678558D01*
X132988000Y-36252200D02*
X135177200Y-36252200D01*
X132515156Y-36678558D02*
X132988000Y-36252200D01*
X126619000Y-46634400D02*
X125272800Y-46634400D01*
X131521200Y-41732200D02*
X126619000Y-46634400D01*
X131521200Y-39344600D02*
X131521200Y-41732200D01*
X132969000Y-38303200D02*
X131521200Y-39344600D01*
X93573600Y-46939200D02*
X94335600Y-46939200D01*
X87655400Y-42265600D02*
X87604600Y-42214800D01*
X92964000Y-42265600D02*
X87655400Y-42265600D01*
X94538800Y-43840400D02*
X92964000Y-42265600D01*
X94538800Y-46736000D02*
X94538800Y-43840400D01*
X94335600Y-46939200D02*
X94538800Y-46736000D01*
X92176600Y-50673000D02*
X93218000Y-51714400D01*
X92176600Y-48336200D02*
X92176600Y-50673000D01*
X93573600Y-46939200D02*
X92176600Y-48336200D01*
X88900000Y-56210200D02*
X86868000Y-54178200D01*
X107264200Y-56210200D02*
X88900000Y-56210200D01*
X109880400Y-58826400D02*
X107264200Y-56210200D01*
X87299800Y-51943000D02*
X87299800Y-52298600D01*
X92278200Y-46964600D02*
X87299800Y-51943000D01*
X92278200Y-44627800D02*
X92278200Y-46964600D01*
X92583000Y-44069000D02*
X92278200Y-44627800D01*
X121894600Y-57251600D02*
X126212600Y-52933600D01*
X118719600Y-57251600D02*
X121894600Y-57251600D01*
X117322600Y-58648600D02*
X118719600Y-57251600D01*
X101828600Y-47879000D02*
X99060000Y-47879000D01*
X101879400Y-47929800D02*
X101828600Y-47879000D01*
D18*
G36*
X128807302Y-53261354D02*
X129775517Y-53663392D01*
X130823884Y-53664307D01*
X131776000Y-53270900D01*
X131776000Y-59106600D01*
X118144825Y-59106600D01*
X118257438Y-58835399D01*
X118257479Y-58788523D01*
X119034402Y-58011600D01*
X121894600Y-58011600D01*
X122185439Y-57953748D01*
X122432001Y-57789001D01*
X126352280Y-53868722D01*
X126397767Y-53868762D01*
X126741543Y-53726717D01*
X127004792Y-53463927D01*
X127016943Y-53434664D01*
X127130073Y-53547992D01*
X127473601Y-53690638D01*
X127845567Y-53690962D01*
X128189343Y-53548917D01*
X128452592Y-53286127D01*
X128564059Y-53017686D01*
X128807302Y-53261354D01*
X128807302Y-53261354D01*
G37*
X128807302Y-53261354D02*
X129775517Y-53663392D01*
X130823884Y-53664307D01*
X131776000Y-53270900D01*
X131776000Y-59106600D01*
X118144825Y-59106600D01*
X118257438Y-58835399D01*
X118257479Y-58788523D01*
X119034402Y-58011600D01*
X121894600Y-58011600D01*
X122185439Y-57953748D01*
X122432001Y-57789001D01*
X126352280Y-53868722D01*
X126397767Y-53868762D01*
X126741543Y-53726717D01*
X127004792Y-53463927D01*
X127016943Y-53434664D01*
X127130073Y-53547992D01*
X127473601Y-53690638D01*
X127845567Y-53690962D01*
X128189343Y-53548917D01*
X128452592Y-53286127D01*
X128564059Y-53017686D01*
X128807302Y-53261354D01*
G36*
X86317250Y-53406852D02*
X86075808Y-53647873D01*
X85933162Y-53991401D01*
X85932838Y-54363367D01*
X86074883Y-54707143D01*
X86337673Y-54970392D01*
X86681201Y-55113038D01*
X86728077Y-55113079D01*
X88362599Y-56747601D01*
X88609161Y-56912348D01*
X88900000Y-56970200D01*
X106949398Y-56970200D01*
X108945278Y-58966080D01*
X108945238Y-59011567D01*
X108984505Y-59106600D01*
X79983800Y-59106600D01*
X79983800Y-52519955D01*
X80039302Y-52575554D01*
X81007517Y-52977592D01*
X82055884Y-52978507D01*
X83024799Y-52578159D01*
X83766754Y-51837498D01*
X84054625Y-51144227D01*
X86317250Y-53406852D01*
X86317250Y-53406852D01*
G37*
X86317250Y-53406852D02*
X86075808Y-53647873D01*
X85933162Y-53991401D01*
X85932838Y-54363367D01*
X86074883Y-54707143D01*
X86337673Y-54970392D01*
X86681201Y-55113038D01*
X86728077Y-55113079D01*
X88362599Y-56747601D01*
X88609161Y-56912348D01*
X88900000Y-56970200D01*
X106949398Y-56970200D01*
X108945278Y-58966080D01*
X108945238Y-59011567D01*
X108984505Y-59106600D01*
X79983800Y-59106600D01*
X79983800Y-52519955D01*
X80039302Y-52575554D01*
X81007517Y-52977592D01*
X82055884Y-52978507D01*
X83024799Y-52578159D01*
X83766754Y-51837498D01*
X84054625Y-51144227D01*
X86317250Y-53406852D01*
G36*
X133586737Y-32422615D02*
X133417393Y-32830439D01*
X133417008Y-33272024D01*
X133585639Y-33680143D01*
X133897615Y-33992663D01*
X134240855Y-34135189D01*
X134317373Y-34319921D01*
X134514525Y-34335270D01*
X134687455Y-34162340D01*
X134747024Y-34162392D01*
X134917339Y-34092019D01*
X134917165Y-34291840D01*
X134694130Y-34514875D01*
X134701537Y-34610018D01*
X134634114Y-34637877D01*
X134363826Y-34907693D01*
X134217367Y-35260406D01*
X134217164Y-35492200D01*
X132988000Y-35492200D01*
X132861460Y-35517371D01*
X132733799Y-35535973D01*
X132716692Y-35546167D01*
X132697161Y-35550052D01*
X132589888Y-35621730D01*
X132479061Y-35687771D01*
X132006216Y-36114129D01*
X131932886Y-36212475D01*
X131852983Y-36305560D01*
X131844754Y-36330674D01*
X131828960Y-36351856D01*
X131817641Y-36396556D01*
X131704717Y-36123257D01*
X131441927Y-35860008D01*
X131098399Y-35717362D01*
X130726433Y-35717038D01*
X130382657Y-35859083D01*
X130224640Y-36016824D01*
X130224640Y-34633800D01*
X130180362Y-34398483D01*
X130041290Y-34182359D01*
X129829090Y-34037369D01*
X129577200Y-33986360D01*
X127877200Y-33986360D01*
X127641883Y-34030638D01*
X127425759Y-34169710D01*
X127280769Y-34381910D01*
X127267114Y-34449341D01*
X127237254Y-34404653D01*
X126755485Y-34082746D01*
X126187200Y-33969707D01*
X125646418Y-34077275D01*
X125775838Y-33765599D01*
X125776162Y-33393633D01*
X125634117Y-33049857D01*
X125371327Y-32786608D01*
X125027799Y-32643962D01*
X124655833Y-32643638D01*
X124312057Y-32785683D01*
X124048808Y-33048473D01*
X124007065Y-33149000D01*
X120628263Y-33149000D01*
X120596127Y-33116808D01*
X120252599Y-32974162D01*
X119880633Y-32973838D01*
X119536857Y-33115883D01*
X119273608Y-33378673D01*
X119130962Y-33722201D01*
X119130638Y-34094167D01*
X119272683Y-34437943D01*
X119535473Y-34701192D01*
X119879001Y-34843838D01*
X120250967Y-34844162D01*
X120594743Y-34702117D01*
X120627918Y-34669000D01*
X122420515Y-34669000D01*
X122275239Y-34886422D01*
X122162200Y-35454707D01*
X122162200Y-35512893D01*
X122275239Y-36081178D01*
X122597146Y-36562947D01*
X122880301Y-36752145D01*
X122880276Y-36752155D01*
X122452017Y-37142442D01*
X122205714Y-37666908D01*
X122326381Y-37896800D01*
X123520200Y-37896800D01*
X123520200Y-37876800D01*
X123774200Y-37876800D01*
X123774200Y-37896800D01*
X123794200Y-37896800D01*
X123794200Y-38150800D01*
X123774200Y-38150800D01*
X123774200Y-39343955D01*
X124004090Y-39465276D01*
X124414124Y-39295445D01*
X124842383Y-38905158D01*
X124909498Y-38762247D01*
X125137146Y-39102947D01*
X125618915Y-39424854D01*
X126187200Y-39537893D01*
X126755485Y-39424854D01*
X127237254Y-39102947D01*
X127457200Y-38773774D01*
X127677146Y-39102947D01*
X128158915Y-39424854D01*
X128727200Y-39537893D01*
X129295485Y-39424854D01*
X129777254Y-39102947D01*
X130099161Y-38621178D01*
X130212200Y-38052893D01*
X130212200Y-37994707D01*
X130099161Y-37426422D01*
X129777254Y-36944653D01*
X129776021Y-36943829D01*
X129812517Y-36936962D01*
X129976443Y-36831478D01*
X129976438Y-36837367D01*
X130118483Y-37181143D01*
X130381273Y-37444392D01*
X130631147Y-37548149D01*
X131246478Y-38163480D01*
X131246438Y-38208967D01*
X131372918Y-38515073D01*
X131077414Y-38727629D01*
X131035221Y-38772840D01*
X130983799Y-38807199D01*
X130935007Y-38880221D01*
X130875091Y-38944423D01*
X130853411Y-39002339D01*
X130819052Y-39053761D01*
X130801919Y-39139893D01*
X130771131Y-39222140D01*
X130773265Y-39283945D01*
X130761200Y-39344600D01*
X130761200Y-41417398D01*
X126304198Y-45874400D01*
X125835263Y-45874400D01*
X125803127Y-45842208D01*
X125459599Y-45699562D01*
X125087633Y-45699238D01*
X124743857Y-45841283D01*
X124480608Y-46104073D01*
X124337962Y-46447601D01*
X124337638Y-46819567D01*
X124479683Y-47163343D01*
X124742473Y-47426592D01*
X125086001Y-47569238D01*
X125457967Y-47569562D01*
X125801743Y-47427517D01*
X125834918Y-47394400D01*
X126619000Y-47394400D01*
X126909839Y-47336548D01*
X127156401Y-47171801D01*
X127514236Y-46813966D01*
X127513893Y-47207084D01*
X127914241Y-48175999D01*
X128654902Y-48917954D01*
X128677055Y-48927153D01*
X128069246Y-49533902D01*
X127667208Y-50502117D01*
X127666293Y-51550484D01*
X127762342Y-51782940D01*
X127308801Y-51329399D01*
X127062239Y-51164652D01*
X126771400Y-51106800D01*
X118745000Y-51106800D01*
X118502414Y-51155054D01*
X118454160Y-51164652D01*
X118207599Y-51329399D01*
X116708999Y-52827999D01*
X116544252Y-53074561D01*
X116544047Y-53075590D01*
X116454208Y-53165273D01*
X116311562Y-53508801D01*
X116311238Y-53880767D01*
X116453283Y-54224543D01*
X116716073Y-54487792D01*
X117059601Y-54630438D01*
X117431567Y-54630762D01*
X117775343Y-54488717D01*
X118038592Y-54225927D01*
X118181238Y-53882399D01*
X118181562Y-53510433D01*
X118179985Y-53506617D01*
X119059802Y-52626800D01*
X125327591Y-52626800D01*
X125277762Y-52746801D01*
X125277721Y-52793677D01*
X121579798Y-56491600D01*
X118719600Y-56491600D01*
X118428760Y-56549452D01*
X118182199Y-56714199D01*
X117182920Y-57713478D01*
X117137433Y-57713438D01*
X116793657Y-57855483D01*
X116530408Y-58118273D01*
X116387762Y-58461801D01*
X116387438Y-58833767D01*
X116500170Y-59106600D01*
X112008572Y-59106600D01*
X112110638Y-58860799D01*
X112110962Y-58488833D01*
X111968917Y-58145057D01*
X111706127Y-57881808D01*
X111362599Y-57739162D01*
X111315723Y-57739121D01*
X106914602Y-53338000D01*
X107899200Y-53338000D01*
X108190039Y-53280148D01*
X108436601Y-53115401D01*
X108445280Y-53106722D01*
X108490767Y-53106762D01*
X108834543Y-52964717D01*
X109097792Y-52701927D01*
X109240438Y-52358399D01*
X109240669Y-52093400D01*
X110175198Y-52093400D01*
X110291478Y-52209680D01*
X110291438Y-52255167D01*
X110433483Y-52598943D01*
X110466600Y-52632118D01*
X110466600Y-55905400D01*
X110524452Y-56196239D01*
X110672485Y-56417786D01*
X110672438Y-56471567D01*
X110814483Y-56815343D01*
X111077273Y-57078592D01*
X111420801Y-57221238D01*
X111792767Y-57221562D01*
X112136543Y-57079517D01*
X112399792Y-56816727D01*
X112542438Y-56473199D01*
X112542762Y-56101233D01*
X112400717Y-55757457D01*
X112137927Y-55494208D01*
X111986600Y-55431371D01*
X111986600Y-52632463D01*
X112018792Y-52600327D01*
X112161438Y-52256799D01*
X112161762Y-51884833D01*
X112019717Y-51541057D01*
X111756927Y-51277808D01*
X111413399Y-51135162D01*
X111366523Y-51135121D01*
X111027401Y-50795999D01*
X110780839Y-50631252D01*
X110490000Y-50573400D01*
X108791863Y-50573400D01*
X108759727Y-50541208D01*
X108416199Y-50398562D01*
X108044233Y-50398238D01*
X107700457Y-50540283D01*
X107437208Y-50803073D01*
X107294562Y-51146601D01*
X107294238Y-51518567D01*
X107417961Y-51818000D01*
X105735487Y-51818000D01*
X105735562Y-51732433D01*
X105593517Y-51388657D01*
X105330727Y-51125408D01*
X104987199Y-50982762D01*
X104615233Y-50982438D01*
X104271457Y-51124483D01*
X104238282Y-51157600D01*
X98155602Y-51157600D01*
X96727201Y-49729199D01*
X96480639Y-49564452D01*
X96189800Y-49506600D01*
X95695796Y-49506600D01*
X95774348Y-49389039D01*
X95832200Y-49098200D01*
X95832200Y-48064167D01*
X98124838Y-48064167D01*
X98266883Y-48407943D01*
X98529673Y-48671192D01*
X98873201Y-48813838D01*
X99245167Y-48814162D01*
X99588943Y-48672117D01*
X99622118Y-48639000D01*
X101266226Y-48639000D01*
X101349073Y-48721992D01*
X101692601Y-48864638D01*
X102064567Y-48864962D01*
X102408343Y-48722917D01*
X102671592Y-48460127D01*
X102741086Y-48292767D01*
X113009238Y-48292767D01*
X113151283Y-48636543D01*
X113414073Y-48899792D01*
X113757601Y-49042438D01*
X114129567Y-49042762D01*
X114473343Y-48900717D01*
X114577115Y-48797126D01*
X115304950Y-48709786D01*
X115325898Y-48702942D01*
X115347930Y-48703377D01*
X115466157Y-48657118D01*
X115586825Y-48617694D01*
X115603557Y-48603356D01*
X115624081Y-48595326D01*
X115715609Y-48507341D01*
X115812001Y-48424744D01*
X115821973Y-48405094D01*
X115837861Y-48389821D01*
X115888754Y-48273503D01*
X115946198Y-48160310D01*
X115947891Y-48138342D01*
X115956726Y-48118150D01*
X116296658Y-46569569D01*
X116463792Y-46402727D01*
X116606438Y-46059199D01*
X116606762Y-45687233D01*
X116464717Y-45343457D01*
X116201927Y-45080208D01*
X115858399Y-44937562D01*
X115486433Y-44937238D01*
X115142657Y-45079283D01*
X114879408Y-45342073D01*
X114736762Y-45685601D01*
X114736438Y-46057567D01*
X114812467Y-46241572D01*
X114587826Y-47264937D01*
X114405787Y-47286781D01*
X114131199Y-47172762D01*
X113759233Y-47172438D01*
X113415457Y-47314483D01*
X113152208Y-47577273D01*
X113009562Y-47920801D01*
X113009238Y-48292767D01*
X102741086Y-48292767D01*
X102814238Y-48116599D01*
X102814562Y-47744633D01*
X102672517Y-47400857D01*
X102409727Y-47137608D01*
X102066199Y-46994962D01*
X101694233Y-46994638D01*
X101393253Y-47119000D01*
X99622463Y-47119000D01*
X99590327Y-47086808D01*
X99246799Y-46944162D01*
X98874833Y-46943838D01*
X98531057Y-47085883D01*
X98267808Y-47348673D01*
X98125162Y-47692201D01*
X98124838Y-48064167D01*
X95832200Y-48064167D01*
X95832200Y-43713400D01*
X95774348Y-43422561D01*
X95685084Y-43288967D01*
X97718438Y-43288967D01*
X97860483Y-43632743D01*
X98123273Y-43895992D01*
X98466801Y-44038638D01*
X98838767Y-44038962D01*
X99182543Y-43896917D01*
X99445792Y-43634127D01*
X99588438Y-43290599D01*
X99588762Y-42918633D01*
X99446717Y-42574857D01*
X99439000Y-42567127D01*
X99439000Y-38945567D01*
X103712838Y-38945567D01*
X103854883Y-39289343D01*
X103888000Y-39322518D01*
X103888000Y-41144293D01*
X103881208Y-41151073D01*
X103738562Y-41494601D01*
X103738238Y-41866567D01*
X103880283Y-42210343D01*
X104143073Y-42473592D01*
X104486601Y-42616238D01*
X104858567Y-42616562D01*
X105202343Y-42474517D01*
X105465592Y-42211727D01*
X105608238Y-41868199D01*
X105608562Y-41496233D01*
X105466517Y-41152457D01*
X105408000Y-41093838D01*
X105408000Y-39322863D01*
X105440192Y-39290727D01*
X105582838Y-38947199D01*
X105583162Y-38575233D01*
X105502780Y-38380692D01*
X122205714Y-38380692D01*
X122452017Y-38905158D01*
X122880276Y-39295445D01*
X123290310Y-39465276D01*
X123520200Y-39343955D01*
X123520200Y-38150800D01*
X122326381Y-38150800D01*
X122205714Y-38380692D01*
X105502780Y-38380692D01*
X105441117Y-38231457D01*
X105178327Y-37968208D01*
X104834799Y-37825562D01*
X104462833Y-37825238D01*
X104119057Y-37967283D01*
X103855808Y-38230073D01*
X103713162Y-38573601D01*
X103712838Y-38945567D01*
X99439000Y-38945567D01*
X99439000Y-36554263D01*
X99471192Y-36522127D01*
X99613838Y-36178599D01*
X99614162Y-35806633D01*
X99472117Y-35462857D01*
X99209327Y-35199608D01*
X98865799Y-35056962D01*
X98493833Y-35056638D01*
X98150057Y-35198683D01*
X97886808Y-35461473D01*
X97744162Y-35805001D01*
X97743838Y-36176967D01*
X97885883Y-36520743D01*
X97919000Y-36553918D01*
X97919000Y-42515981D01*
X97861408Y-42573473D01*
X97718762Y-42917001D01*
X97718438Y-43288967D01*
X95685084Y-43288967D01*
X95609601Y-43175999D01*
X93873722Y-41440120D01*
X93873762Y-41394633D01*
X93731717Y-41050857D01*
X93468927Y-40787608D01*
X93125399Y-40644962D01*
X92753433Y-40644638D01*
X92409657Y-40786683D01*
X92146408Y-41049473D01*
X92003762Y-41393001D01*
X92003664Y-41505600D01*
X88217774Y-41505600D01*
X88134927Y-41422608D01*
X87791399Y-41279962D01*
X87419433Y-41279638D01*
X87075657Y-41421683D01*
X86812408Y-41684473D01*
X86669762Y-42028001D01*
X86669438Y-42399967D01*
X86811483Y-42743743D01*
X87074273Y-43006992D01*
X87417801Y-43149638D01*
X87789767Y-43149962D01*
X88090747Y-43025600D01*
X88854045Y-43025600D01*
X88853838Y-43263567D01*
X88995883Y-43607343D01*
X89029000Y-43640518D01*
X89029000Y-47164359D01*
X88869808Y-47323273D01*
X88727162Y-47666801D01*
X88726838Y-48038767D01*
X88868883Y-48382543D01*
X89131673Y-48645792D01*
X89407622Y-48760376D01*
X86762399Y-51405599D01*
X86643519Y-51583517D01*
X84783200Y-49723198D01*
X84783200Y-48136663D01*
X84815392Y-48104527D01*
X84958038Y-47760999D01*
X84958362Y-47389033D01*
X84816317Y-47045257D01*
X84553527Y-46782008D01*
X84209999Y-46639362D01*
X84047901Y-46639221D01*
X84168792Y-46348083D01*
X84169707Y-45299716D01*
X83769359Y-44330801D01*
X83028698Y-43588846D01*
X82060483Y-43186808D01*
X81012116Y-43185893D01*
X80043201Y-43586241D01*
X79983800Y-43645538D01*
X79983800Y-32155600D01*
X133854218Y-32155600D01*
X133586737Y-32422615D01*
X133586737Y-32422615D01*
G37*
X133586737Y-32422615D02*
X133417393Y-32830439D01*
X133417008Y-33272024D01*
X133585639Y-33680143D01*
X133897615Y-33992663D01*
X134240855Y-34135189D01*
X134317373Y-34319921D01*
X134514525Y-34335270D01*
X134687455Y-34162340D01*
X134747024Y-34162392D01*
X134917339Y-34092019D01*
X134917165Y-34291840D01*
X134694130Y-34514875D01*
X134701537Y-34610018D01*
X134634114Y-34637877D01*
X134363826Y-34907693D01*
X134217367Y-35260406D01*
X134217164Y-35492200D01*
X132988000Y-35492200D01*
X132861460Y-35517371D01*
X132733799Y-35535973D01*
X132716692Y-35546167D01*
X132697161Y-35550052D01*
X132589888Y-35621730D01*
X132479061Y-35687771D01*
X132006216Y-36114129D01*
X131932886Y-36212475D01*
X131852983Y-36305560D01*
X131844754Y-36330674D01*
X131828960Y-36351856D01*
X131817641Y-36396556D01*
X131704717Y-36123257D01*
X131441927Y-35860008D01*
X131098399Y-35717362D01*
X130726433Y-35717038D01*
X130382657Y-35859083D01*
X130224640Y-36016824D01*
X130224640Y-34633800D01*
X130180362Y-34398483D01*
X130041290Y-34182359D01*
X129829090Y-34037369D01*
X129577200Y-33986360D01*
X127877200Y-33986360D01*
X127641883Y-34030638D01*
X127425759Y-34169710D01*
X127280769Y-34381910D01*
X127267114Y-34449341D01*
X127237254Y-34404653D01*
X126755485Y-34082746D01*
X126187200Y-33969707D01*
X125646418Y-34077275D01*
X125775838Y-33765599D01*
X125776162Y-33393633D01*
X125634117Y-33049857D01*
X125371327Y-32786608D01*
X125027799Y-32643962D01*
X124655833Y-32643638D01*
X124312057Y-32785683D01*
X124048808Y-33048473D01*
X124007065Y-33149000D01*
X120628263Y-33149000D01*
X120596127Y-33116808D01*
X120252599Y-32974162D01*
X119880633Y-32973838D01*
X119536857Y-33115883D01*
X119273608Y-33378673D01*
X119130962Y-33722201D01*
X119130638Y-34094167D01*
X119272683Y-34437943D01*
X119535473Y-34701192D01*
X119879001Y-34843838D01*
X120250967Y-34844162D01*
X120594743Y-34702117D01*
X120627918Y-34669000D01*
X122420515Y-34669000D01*
X122275239Y-34886422D01*
X122162200Y-35454707D01*
X122162200Y-35512893D01*
X122275239Y-36081178D01*
X122597146Y-36562947D01*
X122880301Y-36752145D01*
X122880276Y-36752155D01*
X122452017Y-37142442D01*
X122205714Y-37666908D01*
X122326381Y-37896800D01*
X123520200Y-37896800D01*
X123520200Y-37876800D01*
X123774200Y-37876800D01*
X123774200Y-37896800D01*
X123794200Y-37896800D01*
X123794200Y-38150800D01*
X123774200Y-38150800D01*
X123774200Y-39343955D01*
X124004090Y-39465276D01*
X124414124Y-39295445D01*
X124842383Y-38905158D01*
X124909498Y-38762247D01*
X125137146Y-39102947D01*
X125618915Y-39424854D01*
X126187200Y-39537893D01*
X126755485Y-39424854D01*
X127237254Y-39102947D01*
X127457200Y-38773774D01*
X127677146Y-39102947D01*
X128158915Y-39424854D01*
X128727200Y-39537893D01*
X129295485Y-39424854D01*
X129777254Y-39102947D01*
X130099161Y-38621178D01*
X130212200Y-38052893D01*
X130212200Y-37994707D01*
X130099161Y-37426422D01*
X129777254Y-36944653D01*
X129776021Y-36943829D01*
X129812517Y-36936962D01*
X129976443Y-36831478D01*
X129976438Y-36837367D01*
X130118483Y-37181143D01*
X130381273Y-37444392D01*
X130631147Y-37548149D01*
X131246478Y-38163480D01*
X131246438Y-38208967D01*
X131372918Y-38515073D01*
X131077414Y-38727629D01*
X131035221Y-38772840D01*
X130983799Y-38807199D01*
X130935007Y-38880221D01*
X130875091Y-38944423D01*
X130853411Y-39002339D01*
X130819052Y-39053761D01*
X130801919Y-39139893D01*
X130771131Y-39222140D01*
X130773265Y-39283945D01*
X130761200Y-39344600D01*
X130761200Y-41417398D01*
X126304198Y-45874400D01*
X125835263Y-45874400D01*
X125803127Y-45842208D01*
X125459599Y-45699562D01*
X125087633Y-45699238D01*
X124743857Y-45841283D01*
X124480608Y-46104073D01*
X124337962Y-46447601D01*
X124337638Y-46819567D01*
X124479683Y-47163343D01*
X124742473Y-47426592D01*
X125086001Y-47569238D01*
X125457967Y-47569562D01*
X125801743Y-47427517D01*
X125834918Y-47394400D01*
X126619000Y-47394400D01*
X126909839Y-47336548D01*
X127156401Y-47171801D01*
X127514236Y-46813966D01*
X127513893Y-47207084D01*
X127914241Y-48175999D01*
X128654902Y-48917954D01*
X128677055Y-48927153D01*
X128069246Y-49533902D01*
X127667208Y-50502117D01*
X127666293Y-51550484D01*
X127762342Y-51782940D01*
X127308801Y-51329399D01*
X127062239Y-51164652D01*
X126771400Y-51106800D01*
X118745000Y-51106800D01*
X118502414Y-51155054D01*
X118454160Y-51164652D01*
X118207599Y-51329399D01*
X116708999Y-52827999D01*
X116544252Y-53074561D01*
X116544047Y-53075590D01*
X116454208Y-53165273D01*
X116311562Y-53508801D01*
X116311238Y-53880767D01*
X116453283Y-54224543D01*
X116716073Y-54487792D01*
X117059601Y-54630438D01*
X117431567Y-54630762D01*
X117775343Y-54488717D01*
X118038592Y-54225927D01*
X118181238Y-53882399D01*
X118181562Y-53510433D01*
X118179985Y-53506617D01*
X119059802Y-52626800D01*
X125327591Y-52626800D01*
X125277762Y-52746801D01*
X125277721Y-52793677D01*
X121579798Y-56491600D01*
X118719600Y-56491600D01*
X118428760Y-56549452D01*
X118182199Y-56714199D01*
X117182920Y-57713478D01*
X117137433Y-57713438D01*
X116793657Y-57855483D01*
X116530408Y-58118273D01*
X116387762Y-58461801D01*
X116387438Y-58833767D01*
X116500170Y-59106600D01*
X112008572Y-59106600D01*
X112110638Y-58860799D01*
X112110962Y-58488833D01*
X111968917Y-58145057D01*
X111706127Y-57881808D01*
X111362599Y-57739162D01*
X111315723Y-57739121D01*
X106914602Y-53338000D01*
X107899200Y-53338000D01*
X108190039Y-53280148D01*
X108436601Y-53115401D01*
X108445280Y-53106722D01*
X108490767Y-53106762D01*
X108834543Y-52964717D01*
X109097792Y-52701927D01*
X109240438Y-52358399D01*
X109240669Y-52093400D01*
X110175198Y-52093400D01*
X110291478Y-52209680D01*
X110291438Y-52255167D01*
X110433483Y-52598943D01*
X110466600Y-52632118D01*
X110466600Y-55905400D01*
X110524452Y-56196239D01*
X110672485Y-56417786D01*
X110672438Y-56471567D01*
X110814483Y-56815343D01*
X111077273Y-57078592D01*
X111420801Y-57221238D01*
X111792767Y-57221562D01*
X112136543Y-57079517D01*
X112399792Y-56816727D01*
X112542438Y-56473199D01*
X112542762Y-56101233D01*
X112400717Y-55757457D01*
X112137927Y-55494208D01*
X111986600Y-55431371D01*
X111986600Y-52632463D01*
X112018792Y-52600327D01*
X112161438Y-52256799D01*
X112161762Y-51884833D01*
X112019717Y-51541057D01*
X111756927Y-51277808D01*
X111413399Y-51135162D01*
X111366523Y-51135121D01*
X111027401Y-50795999D01*
X110780839Y-50631252D01*
X110490000Y-50573400D01*
X108791863Y-50573400D01*
X108759727Y-50541208D01*
X108416199Y-50398562D01*
X108044233Y-50398238D01*
X107700457Y-50540283D01*
X107437208Y-50803073D01*
X107294562Y-51146601D01*
X107294238Y-51518567D01*
X107417961Y-51818000D01*
X105735487Y-51818000D01*
X105735562Y-51732433D01*
X105593517Y-51388657D01*
X105330727Y-51125408D01*
X104987199Y-50982762D01*
X104615233Y-50982438D01*
X104271457Y-51124483D01*
X104238282Y-51157600D01*
X98155602Y-51157600D01*
X96727201Y-49729199D01*
X96480639Y-49564452D01*
X96189800Y-49506600D01*
X95695796Y-49506600D01*
X95774348Y-49389039D01*
X95832200Y-49098200D01*
X95832200Y-48064167D01*
X98124838Y-48064167D01*
X98266883Y-48407943D01*
X98529673Y-48671192D01*
X98873201Y-48813838D01*
X99245167Y-48814162D01*
X99588943Y-48672117D01*
X99622118Y-48639000D01*
X101266226Y-48639000D01*
X101349073Y-48721992D01*
X101692601Y-48864638D01*
X102064567Y-48864962D01*
X102408343Y-48722917D01*
X102671592Y-48460127D01*
X102741086Y-48292767D01*
X113009238Y-48292767D01*
X113151283Y-48636543D01*
X113414073Y-48899792D01*
X113757601Y-49042438D01*
X114129567Y-49042762D01*
X114473343Y-48900717D01*
X114577115Y-48797126D01*
X115304950Y-48709786D01*
X115325898Y-48702942D01*
X115347930Y-48703377D01*
X115466157Y-48657118D01*
X115586825Y-48617694D01*
X115603557Y-48603356D01*
X115624081Y-48595326D01*
X115715609Y-48507341D01*
X115812001Y-48424744D01*
X115821973Y-48405094D01*
X115837861Y-48389821D01*
X115888754Y-48273503D01*
X115946198Y-48160310D01*
X115947891Y-48138342D01*
X115956726Y-48118150D01*
X116296658Y-46569569D01*
X116463792Y-46402727D01*
X116606438Y-46059199D01*
X116606762Y-45687233D01*
X116464717Y-45343457D01*
X116201927Y-45080208D01*
X115858399Y-44937562D01*
X115486433Y-44937238D01*
X115142657Y-45079283D01*
X114879408Y-45342073D01*
X114736762Y-45685601D01*
X114736438Y-46057567D01*
X114812467Y-46241572D01*
X114587826Y-47264937D01*
X114405787Y-47286781D01*
X114131199Y-47172762D01*
X113759233Y-47172438D01*
X113415457Y-47314483D01*
X113152208Y-47577273D01*
X113009562Y-47920801D01*
X113009238Y-48292767D01*
X102741086Y-48292767D01*
X102814238Y-48116599D01*
X102814562Y-47744633D01*
X102672517Y-47400857D01*
X102409727Y-47137608D01*
X102066199Y-46994962D01*
X101694233Y-46994638D01*
X101393253Y-47119000D01*
X99622463Y-47119000D01*
X99590327Y-47086808D01*
X99246799Y-46944162D01*
X98874833Y-46943838D01*
X98531057Y-47085883D01*
X98267808Y-47348673D01*
X98125162Y-47692201D01*
X98124838Y-48064167D01*
X95832200Y-48064167D01*
X95832200Y-43713400D01*
X95774348Y-43422561D01*
X95685084Y-43288967D01*
X97718438Y-43288967D01*
X97860483Y-43632743D01*
X98123273Y-43895992D01*
X98466801Y-44038638D01*
X98838767Y-44038962D01*
X99182543Y-43896917D01*
X99445792Y-43634127D01*
X99588438Y-43290599D01*
X99588762Y-42918633D01*
X99446717Y-42574857D01*
X99439000Y-42567127D01*
X99439000Y-38945567D01*
X103712838Y-38945567D01*
X103854883Y-39289343D01*
X103888000Y-39322518D01*
X103888000Y-41144293D01*
X103881208Y-41151073D01*
X103738562Y-41494601D01*
X103738238Y-41866567D01*
X103880283Y-42210343D01*
X104143073Y-42473592D01*
X104486601Y-42616238D01*
X104858567Y-42616562D01*
X105202343Y-42474517D01*
X105465592Y-42211727D01*
X105608238Y-41868199D01*
X105608562Y-41496233D01*
X105466517Y-41152457D01*
X105408000Y-41093838D01*
X105408000Y-39322863D01*
X105440192Y-39290727D01*
X105582838Y-38947199D01*
X105583162Y-38575233D01*
X105502780Y-38380692D01*
X122205714Y-38380692D01*
X122452017Y-38905158D01*
X122880276Y-39295445D01*
X123290310Y-39465276D01*
X123520200Y-39343955D01*
X123520200Y-38150800D01*
X122326381Y-38150800D01*
X122205714Y-38380692D01*
X105502780Y-38380692D01*
X105441117Y-38231457D01*
X105178327Y-37968208D01*
X104834799Y-37825562D01*
X104462833Y-37825238D01*
X104119057Y-37967283D01*
X103855808Y-38230073D01*
X103713162Y-38573601D01*
X103712838Y-38945567D01*
X99439000Y-38945567D01*
X99439000Y-36554263D01*
X99471192Y-36522127D01*
X99613838Y-36178599D01*
X99614162Y-35806633D01*
X99472117Y-35462857D01*
X99209327Y-35199608D01*
X98865799Y-35056962D01*
X98493833Y-35056638D01*
X98150057Y-35198683D01*
X97886808Y-35461473D01*
X97744162Y-35805001D01*
X97743838Y-36176967D01*
X97885883Y-36520743D01*
X97919000Y-36553918D01*
X97919000Y-42515981D01*
X97861408Y-42573473D01*
X97718762Y-42917001D01*
X97718438Y-43288967D01*
X95685084Y-43288967D01*
X95609601Y-43175999D01*
X93873722Y-41440120D01*
X93873762Y-41394633D01*
X93731717Y-41050857D01*
X93468927Y-40787608D01*
X93125399Y-40644962D01*
X92753433Y-40644638D01*
X92409657Y-40786683D01*
X92146408Y-41049473D01*
X92003762Y-41393001D01*
X92003664Y-41505600D01*
X88217774Y-41505600D01*
X88134927Y-41422608D01*
X87791399Y-41279962D01*
X87419433Y-41279638D01*
X87075657Y-41421683D01*
X86812408Y-41684473D01*
X86669762Y-42028001D01*
X86669438Y-42399967D01*
X86811483Y-42743743D01*
X87074273Y-43006992D01*
X87417801Y-43149638D01*
X87789767Y-43149962D01*
X88090747Y-43025600D01*
X88854045Y-43025600D01*
X88853838Y-43263567D01*
X88995883Y-43607343D01*
X89029000Y-43640518D01*
X89029000Y-47164359D01*
X88869808Y-47323273D01*
X88727162Y-47666801D01*
X88726838Y-48038767D01*
X88868883Y-48382543D01*
X89131673Y-48645792D01*
X89407622Y-48760376D01*
X86762399Y-51405599D01*
X86643519Y-51583517D01*
X84783200Y-49723198D01*
X84783200Y-48136663D01*
X84815392Y-48104527D01*
X84958038Y-47760999D01*
X84958362Y-47389033D01*
X84816317Y-47045257D01*
X84553527Y-46782008D01*
X84209999Y-46639362D01*
X84047901Y-46639221D01*
X84168792Y-46348083D01*
X84169707Y-45299716D01*
X83769359Y-44330801D01*
X83028698Y-43588846D01*
X82060483Y-43186808D01*
X81012116Y-43185893D01*
X80043201Y-43586241D01*
X79983800Y-43645538D01*
X79983800Y-32155600D01*
X133854218Y-32155600D01*
X133586737Y-32422615D01*
G36*
X91416600Y-50673000D02*
X91474452Y-50963839D01*
X91639199Y-51210401D01*
X92282878Y-51854080D01*
X92282838Y-51899567D01*
X92424883Y-52243343D01*
X92581509Y-52400243D01*
X92425808Y-52555673D01*
X92283162Y-52899201D01*
X92282838Y-53271167D01*
X92424883Y-53614943D01*
X92687673Y-53878192D01*
X93031201Y-54020838D01*
X93403167Y-54021162D01*
X93746943Y-53879117D01*
X94010192Y-53616327D01*
X94152838Y-53272799D01*
X94152879Y-53225923D01*
X94466601Y-52912201D01*
X94631348Y-52665639D01*
X94689200Y-52374800D01*
X94689200Y-51257200D01*
X94678134Y-51201567D01*
X94901767Y-51201762D01*
X95245543Y-51059717D01*
X95278718Y-51026600D01*
X95874998Y-51026600D01*
X96892998Y-52044600D01*
X94630398Y-54307200D01*
X89548233Y-54307200D01*
X89682438Y-53983999D01*
X89682762Y-53612033D01*
X89540717Y-53268257D01*
X89277927Y-53005008D01*
X88934399Y-52862362D01*
X88562433Y-52862038D01*
X88261453Y-52986400D01*
X88046402Y-52986400D01*
X87990372Y-52930370D01*
X88091992Y-52828927D01*
X88234638Y-52485399D01*
X88234962Y-52113433D01*
X88225959Y-52091643D01*
X91416600Y-48901002D01*
X91416600Y-50673000D01*
X91416600Y-50673000D01*
G37*
X91416600Y-50673000D02*
X91474452Y-50963839D01*
X91639199Y-51210401D01*
X92282878Y-51854080D01*
X92282838Y-51899567D01*
X92424883Y-52243343D01*
X92581509Y-52400243D01*
X92425808Y-52555673D01*
X92283162Y-52899201D01*
X92282838Y-53271167D01*
X92424883Y-53614943D01*
X92687673Y-53878192D01*
X93031201Y-54020838D01*
X93403167Y-54021162D01*
X93746943Y-53879117D01*
X94010192Y-53616327D01*
X94152838Y-53272799D01*
X94152879Y-53225923D01*
X94466601Y-52912201D01*
X94631348Y-52665639D01*
X94689200Y-52374800D01*
X94689200Y-51257200D01*
X94678134Y-51201567D01*
X94901767Y-51201762D01*
X95245543Y-51059717D01*
X95278718Y-51026600D01*
X95874998Y-51026600D01*
X96892998Y-52044600D01*
X94630398Y-54307200D01*
X89548233Y-54307200D01*
X89682438Y-53983999D01*
X89682762Y-53612033D01*
X89540717Y-53268257D01*
X89277927Y-53005008D01*
X88934399Y-52862362D01*
X88562433Y-52862038D01*
X88261453Y-52986400D01*
X88046402Y-52986400D01*
X87990372Y-52930370D01*
X88091992Y-52828927D01*
X88234638Y-52485399D01*
X88234962Y-52113433D01*
X88225959Y-52091643D01*
X91416600Y-48901002D01*
X91416600Y-50673000D01*
G36*
X140408536Y-32499640D02*
X140556158Y-32856031D01*
X140791925Y-32917869D01*
X141547595Y-32162200D01*
X141540995Y-32155600D01*
X141913405Y-32155600D01*
X141906805Y-32162200D01*
X142662475Y-32917869D01*
X142898242Y-32856031D01*
X143074619Y-32355078D01*
X143063803Y-32155600D01*
X143612400Y-32155600D01*
X143612400Y-41123400D01*
X143063141Y-41123400D01*
X143045864Y-40804760D01*
X142898242Y-40448369D01*
X142662475Y-40386531D01*
X141925605Y-41123400D01*
X141528795Y-41123400D01*
X140791925Y-40386531D01*
X140556158Y-40448369D01*
X140379781Y-40949322D01*
X140389220Y-41123400D01*
X137072397Y-41123400D01*
X137124619Y-40975078D01*
X137095864Y-40444760D01*
X136997350Y-40206925D01*
X140971531Y-40206925D01*
X141727200Y-40962595D01*
X142482869Y-40206925D01*
X142421031Y-39971158D01*
X141920078Y-39794781D01*
X141389760Y-39823536D01*
X141033369Y-39971158D01*
X140971531Y-40206925D01*
X136997350Y-40206925D01*
X136948242Y-40088369D01*
X136712475Y-40026531D01*
X135956805Y-40782200D01*
X135970948Y-40796343D01*
X135791343Y-40975948D01*
X135777200Y-40961805D01*
X135763058Y-40975948D01*
X135583453Y-40796343D01*
X135597595Y-40782200D01*
X135583452Y-40768058D01*
X135763058Y-40588452D01*
X135777200Y-40602595D01*
X136532869Y-39846925D01*
X136513582Y-39773390D01*
X136690574Y-39596707D01*
X136837033Y-39243994D01*
X136837367Y-38862082D01*
X136750612Y-38652119D01*
X136837033Y-38443994D01*
X136837367Y-38062082D01*
X136750612Y-37852119D01*
X136837033Y-37643994D01*
X136837367Y-37262082D01*
X136691523Y-36909114D01*
X136434846Y-36651988D01*
X136690574Y-36396707D01*
X136837033Y-36043994D01*
X136837367Y-35662082D01*
X136750612Y-35452119D01*
X136837033Y-35243994D01*
X136837367Y-34862082D01*
X136750612Y-34652119D01*
X136837033Y-34443994D01*
X136837367Y-34062082D01*
X136691523Y-33709114D01*
X136513613Y-33530893D01*
X136532869Y-33457475D01*
X135777200Y-32701805D01*
X135763058Y-32715948D01*
X135583453Y-32536343D01*
X135597595Y-32522200D01*
X135583453Y-32508058D01*
X135763058Y-32328453D01*
X135777200Y-32342595D01*
X135791343Y-32328453D01*
X135970948Y-32508058D01*
X135956805Y-32522200D01*
X136712475Y-33277869D01*
X136948242Y-33216031D01*
X136989983Y-33097475D01*
X140971531Y-33097475D01*
X141033369Y-33333242D01*
X141534322Y-33509619D01*
X142064640Y-33480864D01*
X142421031Y-33333242D01*
X142482869Y-33097475D01*
X141727200Y-32341805D01*
X140971531Y-33097475D01*
X136989983Y-33097475D01*
X137124619Y-32715078D01*
X137095864Y-32184760D01*
X137083786Y-32155600D01*
X140389881Y-32155600D01*
X140408536Y-32499640D01*
X140408536Y-32499640D01*
G37*
X140408536Y-32499640D02*
X140556158Y-32856031D01*
X140791925Y-32917869D01*
X141547595Y-32162200D01*
X141540995Y-32155600D01*
X141913405Y-32155600D01*
X141906805Y-32162200D01*
X142662475Y-32917869D01*
X142898242Y-32856031D01*
X143074619Y-32355078D01*
X143063803Y-32155600D01*
X143612400Y-32155600D01*
X143612400Y-41123400D01*
X143063141Y-41123400D01*
X143045864Y-40804760D01*
X142898242Y-40448369D01*
X142662475Y-40386531D01*
X141925605Y-41123400D01*
X141528795Y-41123400D01*
X140791925Y-40386531D01*
X140556158Y-40448369D01*
X140379781Y-40949322D01*
X140389220Y-41123400D01*
X137072397Y-41123400D01*
X137124619Y-40975078D01*
X137095864Y-40444760D01*
X136997350Y-40206925D01*
X140971531Y-40206925D01*
X141727200Y-40962595D01*
X142482869Y-40206925D01*
X142421031Y-39971158D01*
X141920078Y-39794781D01*
X141389760Y-39823536D01*
X141033369Y-39971158D01*
X140971531Y-40206925D01*
X136997350Y-40206925D01*
X136948242Y-40088369D01*
X136712475Y-40026531D01*
X135956805Y-40782200D01*
X135970948Y-40796343D01*
X135791343Y-40975948D01*
X135777200Y-40961805D01*
X135763058Y-40975948D01*
X135583453Y-40796343D01*
X135597595Y-40782200D01*
X135583452Y-40768058D01*
X135763058Y-40588452D01*
X135777200Y-40602595D01*
X136532869Y-39846925D01*
X136513582Y-39773390D01*
X136690574Y-39596707D01*
X136837033Y-39243994D01*
X136837367Y-38862082D01*
X136750612Y-38652119D01*
X136837033Y-38443994D01*
X136837367Y-38062082D01*
X136750612Y-37852119D01*
X136837033Y-37643994D01*
X136837367Y-37262082D01*
X136691523Y-36909114D01*
X136434846Y-36651988D01*
X136690574Y-36396707D01*
X136837033Y-36043994D01*
X136837367Y-35662082D01*
X136750612Y-35452119D01*
X136837033Y-35243994D01*
X136837367Y-34862082D01*
X136750612Y-34652119D01*
X136837033Y-34443994D01*
X136837367Y-34062082D01*
X136691523Y-33709114D01*
X136513613Y-33530893D01*
X136532869Y-33457475D01*
X135777200Y-32701805D01*
X135763058Y-32715948D01*
X135583453Y-32536343D01*
X135597595Y-32522200D01*
X135583453Y-32508058D01*
X135763058Y-32328453D01*
X135777200Y-32342595D01*
X135791343Y-32328453D01*
X135970948Y-32508058D01*
X135956805Y-32522200D01*
X136712475Y-33277869D01*
X136948242Y-33216031D01*
X136989983Y-33097475D01*
X140971531Y-33097475D01*
X141033369Y-33333242D01*
X141534322Y-33509619D01*
X142064640Y-33480864D01*
X142421031Y-33333242D01*
X142482869Y-33097475D01*
X141727200Y-32341805D01*
X140971531Y-33097475D01*
X136989983Y-33097475D01*
X137124619Y-32715078D01*
X137095864Y-32184760D01*
X137083786Y-32155600D01*
X140389881Y-32155600D01*
X140408536Y-32499640D01*
M02*
