G04 #@! TF.FileFunction,Legend,Top*
%FSLAX46Y46*%
G04 Gerber Fmt 4.6, Leading zero omitted, Abs format (unit mm)*
G04 Created by KiCad (PCBNEW 4.0.7) date 05/22/18 09:46:34*
%MOMM*%
%LPD*%
G01*
G04 APERTURE LIST*
%ADD10C,0.100000*%
%ADD11C,0.120000*%
%ADD12C,0.150000*%
G04 APERTURE END LIST*
D10*
D11*
X126661800Y-42203000D02*
X125661800Y-42203000D01*
X125661800Y-43903000D02*
X126661800Y-43903000D01*
X107608000Y-33205800D02*
X107608000Y-34205800D01*
X109308000Y-34205800D02*
X109308000Y-33205800D01*
X117969400Y-34205800D02*
X117969400Y-33205800D01*
X116269400Y-33205800D02*
X116269400Y-34205800D01*
X111392600Y-53195600D02*
X111392600Y-54195600D01*
X113092600Y-54195600D02*
X113092600Y-53195600D01*
X122597800Y-43930200D02*
X121597800Y-43930200D01*
X121597800Y-45630200D02*
X122597800Y-45630200D01*
X101303200Y-51650000D02*
X102303200Y-51650000D01*
X102303200Y-49950000D02*
X101303200Y-49950000D01*
X121804800Y-37330000D02*
X121804800Y-36330000D01*
X120104800Y-36330000D02*
X120104800Y-37330000D01*
X87946600Y-57802400D02*
X87946600Y-56802400D01*
X86246600Y-56802400D02*
X86246600Y-57802400D01*
X89136600Y-48729000D02*
X90136600Y-48729000D01*
X90136600Y-47029000D02*
X89136600Y-47029000D01*
X122369200Y-52286800D02*
X121369200Y-52286800D01*
X121369200Y-53986800D02*
X122369200Y-53986800D01*
X125767200Y-58107200D02*
X125767200Y-57107200D01*
X124067200Y-57107200D02*
X124067200Y-58107200D01*
X90289000Y-44844600D02*
X89289000Y-44844600D01*
X89289000Y-46544600D02*
X90289000Y-46544600D01*
X89263600Y-44792000D02*
X90263600Y-44792000D01*
X90263600Y-43092000D02*
X89263600Y-43092000D01*
X90111200Y-48857800D02*
X89111200Y-48857800D01*
X89111200Y-50557800D02*
X90111200Y-50557800D01*
X117996600Y-33129600D02*
X117996600Y-34129600D01*
X119696600Y-34129600D02*
X119696600Y-33129600D01*
X99071800Y-55795800D02*
X99071800Y-54795800D01*
X97371800Y-54795800D02*
X97371800Y-55795800D01*
X103847000Y-39946200D02*
X103847000Y-38946200D01*
X102147000Y-38946200D02*
X102147000Y-39946200D01*
X101506400Y-44030000D02*
X102506400Y-44030000D01*
X102506400Y-42330000D02*
X101506400Y-42330000D01*
X114921400Y-54195600D02*
X114921400Y-53195600D01*
X113221400Y-53195600D02*
X113221400Y-54195600D01*
X116801000Y-54144800D02*
X116801000Y-53144800D01*
X115101000Y-53144800D02*
X115101000Y-54144800D01*
X89718800Y-55025400D02*
X89718800Y-59325400D01*
X89718800Y-59325400D02*
X95418800Y-59325400D01*
X89718800Y-55025400D02*
X95418800Y-55025400D01*
X84736400Y-44521000D02*
X84736400Y-45451000D01*
X84736400Y-47681000D02*
X84736400Y-46751000D01*
X84736400Y-47681000D02*
X86896400Y-47681000D01*
X84736400Y-44521000D02*
X86196400Y-44521000D01*
X123143800Y-48855400D02*
X123143800Y-47715400D01*
X123143800Y-47715400D02*
X121043800Y-47715400D01*
X123143800Y-48855400D02*
X121043800Y-48855400D01*
X123702600Y-52182800D02*
X123702600Y-51042800D01*
X123702600Y-51042800D02*
X121602600Y-51042800D01*
X123702600Y-52182800D02*
X121602600Y-52182800D01*
X89744200Y-50732800D02*
X89744200Y-55032800D01*
X89744200Y-55032800D02*
X95444200Y-55032800D01*
X89744200Y-50732800D02*
X95444200Y-50732800D01*
X84507800Y-49829600D02*
X84507800Y-50759600D01*
X84507800Y-52989600D02*
X84507800Y-52059600D01*
X84507800Y-52989600D02*
X86667800Y-52989600D01*
X84507800Y-49829600D02*
X85967800Y-49829600D01*
X133517200Y-33402200D02*
X133517200Y-31902200D01*
X133517200Y-31902200D02*
X135037200Y-31902200D01*
X136537200Y-41402200D02*
X140777200Y-41402200D01*
X133517200Y-41402200D02*
X133517200Y-39902200D01*
X136537200Y-31902200D02*
X140777200Y-31902200D01*
X133517200Y-41402200D02*
X135037200Y-41402200D01*
X122317200Y-34153800D02*
X122317200Y-39353800D01*
X127457200Y-34153800D02*
X122317200Y-34153800D01*
X130057200Y-39353800D02*
X122317200Y-39353800D01*
X127457200Y-34153800D02*
X127457200Y-36753800D01*
X127457200Y-36753800D02*
X130057200Y-36753800D01*
X130057200Y-36753800D02*
X130057200Y-39353800D01*
X128727200Y-34153800D02*
X130057200Y-34153800D01*
X130057200Y-34153800D02*
X130057200Y-35483800D01*
X93912000Y-42561800D02*
X90712000Y-42561800D01*
X90712000Y-42561800D02*
X90712000Y-31961800D01*
X90712000Y-31961800D02*
X93912000Y-31961800D01*
X98112000Y-31961800D02*
X101312000Y-31961800D01*
X101312000Y-31961800D02*
X101312000Y-42561800D01*
X101312000Y-42561800D02*
X98112000Y-42561800D01*
X126914200Y-41926400D02*
X125714200Y-41926400D01*
X125714200Y-40166400D02*
X126914200Y-40166400D01*
X82812200Y-42638000D02*
X79612200Y-42638000D01*
X79612200Y-42638000D02*
X79612200Y-32038000D01*
X79612200Y-32038000D02*
X82812200Y-32038000D01*
X87012200Y-32038000D02*
X90212200Y-32038000D01*
X90212200Y-32038000D02*
X90212200Y-42638000D01*
X90212200Y-42638000D02*
X87012200Y-42638000D01*
X121497800Y-45754400D02*
X122697800Y-45754400D01*
X122697800Y-47514400D02*
X121497800Y-47514400D01*
X103140400Y-54619600D02*
X103140400Y-55819600D01*
X101380400Y-55819600D02*
X101380400Y-54619600D01*
X124317200Y-31809800D02*
X125517200Y-31809800D01*
X125517200Y-33569800D02*
X124317200Y-33569800D01*
X101006800Y-54721200D02*
X101006800Y-55921200D01*
X99246800Y-55921200D02*
X99246800Y-54721200D01*
X111268400Y-54213200D02*
X111268400Y-55413200D01*
X109508400Y-55413200D02*
X109508400Y-54213200D01*
X101254000Y-45983000D02*
X102454000Y-45983000D01*
X102454000Y-47743000D02*
X101254000Y-47743000D01*
X101254000Y-47888000D02*
X102454000Y-47888000D01*
X102454000Y-49648000D02*
X101254000Y-49648000D01*
X115204800Y-59554000D02*
X114004800Y-59554000D01*
X114004800Y-57794000D02*
X115204800Y-57794000D01*
X120177000Y-57844800D02*
X121377000Y-57844800D01*
X121377000Y-59604800D02*
X120177000Y-59604800D01*
X115204800Y-57826800D02*
X114004800Y-57826800D01*
X114004800Y-56066800D02*
X115204800Y-56066800D01*
X121396200Y-49056400D02*
X122596200Y-49056400D01*
X122596200Y-50816400D02*
X121396200Y-50816400D01*
X113198200Y-37583000D02*
X111998200Y-37583000D01*
X111998200Y-35823000D02*
X113198200Y-35823000D01*
X120151600Y-55914400D02*
X121351600Y-55914400D01*
X121351600Y-57674400D02*
X120151600Y-57674400D01*
X104573600Y-59065000D02*
X105598600Y-59065000D01*
X103723600Y-57890000D02*
X103723600Y-55140000D01*
X108823600Y-57890000D02*
X108823600Y-55140000D01*
X106948600Y-59065000D02*
X107973600Y-59065000D01*
X104573600Y-53965000D02*
X105598600Y-53965000D01*
X106948600Y-53965000D02*
X107973600Y-53965000D01*
X80101600Y-54789600D02*
X80101600Y-55814600D01*
X81276600Y-53939600D02*
X84026600Y-53939600D01*
X81276600Y-59039600D02*
X84026600Y-59039600D01*
X80101600Y-57164600D02*
X80101600Y-58189600D01*
X85201600Y-54789600D02*
X85201600Y-55814600D01*
X85201600Y-57164600D02*
X85201600Y-58189600D01*
X127459000Y-59319000D02*
X128484000Y-59319000D01*
X126609000Y-58144000D02*
X126609000Y-55394000D01*
X131709000Y-58144000D02*
X131709000Y-55394000D01*
X129834000Y-59319000D02*
X130859000Y-59319000D01*
X127459000Y-54219000D02*
X128484000Y-54219000D01*
X129834000Y-54219000D02*
X130859000Y-54219000D01*
D12*
X117392200Y-49625000D02*
X117392200Y-49050000D01*
X107042200Y-49625000D02*
X107042200Y-48950000D01*
X107042200Y-39275000D02*
X107042200Y-39950000D01*
X117392200Y-39275000D02*
X117392200Y-39950000D01*
X117392200Y-49625000D02*
X116717200Y-49625000D01*
X117392200Y-39275000D02*
X116717200Y-39275000D01*
X107042200Y-39275000D02*
X107717200Y-39275000D01*
X107042200Y-49625000D02*
X107717200Y-49625000D01*
X117392200Y-49050000D02*
X118667200Y-49050000D01*
X97459200Y-50443800D02*
X97459200Y-50318800D01*
X94209200Y-50443800D02*
X94209200Y-50228800D01*
X94209200Y-47193800D02*
X94209200Y-47408800D01*
X97459200Y-47193800D02*
X97459200Y-47408800D01*
X97459200Y-50443800D02*
X94209200Y-50443800D01*
X97459200Y-47193800D02*
X94209200Y-47193800D01*
X97459200Y-50318800D02*
X98384200Y-50318800D01*
X97535400Y-46659200D02*
X97535400Y-46534200D01*
X94285400Y-46659200D02*
X94285400Y-46444200D01*
X94285400Y-43409200D02*
X94285400Y-43624200D01*
X97535400Y-43409200D02*
X97535400Y-43624200D01*
X97535400Y-46659200D02*
X94285400Y-46659200D01*
X97535400Y-43409200D02*
X94285400Y-43409200D01*
X97535400Y-46534200D02*
X98460400Y-46534200D01*
D11*
X109726800Y-34105800D02*
X110126800Y-34105800D01*
X110126800Y-34105800D02*
X110126800Y-33305800D01*
X115526800Y-33305800D02*
X115526800Y-34105800D01*
X111926800Y-31905800D02*
X113726800Y-31905800D01*
X113726800Y-35505800D02*
X111926800Y-35505800D01*
X111926800Y-35505800D02*
X111926800Y-35745800D01*
D12*
X125995134Y-41660143D02*
X125947515Y-41707762D01*
X125804658Y-41755381D01*
X125709420Y-41755381D01*
X125566562Y-41707762D01*
X125471324Y-41612524D01*
X125423705Y-41517286D01*
X125376086Y-41326810D01*
X125376086Y-41183952D01*
X125423705Y-40993476D01*
X125471324Y-40898238D01*
X125566562Y-40803000D01*
X125709420Y-40755381D01*
X125804658Y-40755381D01*
X125947515Y-40803000D01*
X125995134Y-40850619D01*
X126947515Y-41755381D02*
X126376086Y-41755381D01*
X126661800Y-41755381D02*
X126661800Y-40755381D01*
X126566562Y-40898238D01*
X126471324Y-40993476D01*
X126376086Y-41041095D01*
X107065143Y-33872466D02*
X107112762Y-33920085D01*
X107160381Y-34062942D01*
X107160381Y-34158180D01*
X107112762Y-34301038D01*
X107017524Y-34396276D01*
X106922286Y-34443895D01*
X106731810Y-34491514D01*
X106588952Y-34491514D01*
X106398476Y-34443895D01*
X106303238Y-34396276D01*
X106208000Y-34301038D01*
X106160381Y-34158180D01*
X106160381Y-34062942D01*
X106208000Y-33920085D01*
X106255619Y-33872466D01*
X106255619Y-33491514D02*
X106208000Y-33443895D01*
X106160381Y-33348657D01*
X106160381Y-33110561D01*
X106208000Y-33015323D01*
X106255619Y-32967704D01*
X106350857Y-32920085D01*
X106446095Y-32920085D01*
X106588952Y-32967704D01*
X107160381Y-33539133D01*
X107160381Y-32920085D01*
X119226543Y-33872466D02*
X119274162Y-33920085D01*
X119321781Y-34062942D01*
X119321781Y-34158180D01*
X119274162Y-34301038D01*
X119178924Y-34396276D01*
X119083686Y-34443895D01*
X118893210Y-34491514D01*
X118750352Y-34491514D01*
X118559876Y-34443895D01*
X118464638Y-34396276D01*
X118369400Y-34301038D01*
X118321781Y-34158180D01*
X118321781Y-34062942D01*
X118369400Y-33920085D01*
X118417019Y-33872466D01*
X118321781Y-33539133D02*
X118321781Y-32920085D01*
X118702733Y-33253419D01*
X118702733Y-33110561D01*
X118750352Y-33015323D01*
X118797971Y-32967704D01*
X118893210Y-32920085D01*
X119131305Y-32920085D01*
X119226543Y-32967704D01*
X119274162Y-33015323D01*
X119321781Y-33110561D01*
X119321781Y-33396276D01*
X119274162Y-33491514D01*
X119226543Y-33539133D01*
X110849743Y-53862266D02*
X110897362Y-53909885D01*
X110944981Y-54052742D01*
X110944981Y-54147980D01*
X110897362Y-54290838D01*
X110802124Y-54386076D01*
X110706886Y-54433695D01*
X110516410Y-54481314D01*
X110373552Y-54481314D01*
X110183076Y-54433695D01*
X110087838Y-54386076D01*
X109992600Y-54290838D01*
X109944981Y-54147980D01*
X109944981Y-54052742D01*
X109992600Y-53909885D01*
X110040219Y-53862266D01*
X109944981Y-52957504D02*
X109944981Y-53433695D01*
X110421171Y-53481314D01*
X110373552Y-53433695D01*
X110325933Y-53338457D01*
X110325933Y-53100361D01*
X110373552Y-53005123D01*
X110421171Y-52957504D01*
X110516410Y-52909885D01*
X110754505Y-52909885D01*
X110849743Y-52957504D01*
X110897362Y-53005123D01*
X110944981Y-53100361D01*
X110944981Y-53338457D01*
X110897362Y-53433695D01*
X110849743Y-53481314D01*
X121931134Y-43387343D02*
X121883515Y-43434962D01*
X121740658Y-43482581D01*
X121645420Y-43482581D01*
X121502562Y-43434962D01*
X121407324Y-43339724D01*
X121359705Y-43244486D01*
X121312086Y-43054010D01*
X121312086Y-42911152D01*
X121359705Y-42720676D01*
X121407324Y-42625438D01*
X121502562Y-42530200D01*
X121645420Y-42482581D01*
X121740658Y-42482581D01*
X121883515Y-42530200D01*
X121931134Y-42577819D01*
X122788277Y-42482581D02*
X122597800Y-42482581D01*
X122502562Y-42530200D01*
X122454943Y-42577819D01*
X122359705Y-42720676D01*
X122312086Y-42911152D01*
X122312086Y-43292105D01*
X122359705Y-43387343D01*
X122407324Y-43434962D01*
X122502562Y-43482581D01*
X122693039Y-43482581D01*
X122788277Y-43434962D01*
X122835896Y-43387343D01*
X122883515Y-43292105D01*
X122883515Y-43054010D01*
X122835896Y-42958771D01*
X122788277Y-42911152D01*
X122693039Y-42863533D01*
X122502562Y-42863533D01*
X122407324Y-42911152D01*
X122359705Y-42958771D01*
X122312086Y-43054010D01*
X101636534Y-52907143D02*
X101588915Y-52954762D01*
X101446058Y-53002381D01*
X101350820Y-53002381D01*
X101207962Y-52954762D01*
X101112724Y-52859524D01*
X101065105Y-52764286D01*
X101017486Y-52573810D01*
X101017486Y-52430952D01*
X101065105Y-52240476D01*
X101112724Y-52145238D01*
X101207962Y-52050000D01*
X101350820Y-52002381D01*
X101446058Y-52002381D01*
X101588915Y-52050000D01*
X101636534Y-52097619D01*
X102207962Y-52430952D02*
X102112724Y-52383333D01*
X102065105Y-52335714D01*
X102017486Y-52240476D01*
X102017486Y-52192857D01*
X102065105Y-52097619D01*
X102112724Y-52050000D01*
X102207962Y-52002381D01*
X102398439Y-52002381D01*
X102493677Y-52050000D01*
X102541296Y-52097619D01*
X102588915Y-52192857D01*
X102588915Y-52240476D01*
X102541296Y-52335714D01*
X102493677Y-52383333D01*
X102398439Y-52430952D01*
X102207962Y-52430952D01*
X102112724Y-52478571D01*
X102065105Y-52526190D01*
X102017486Y-52621429D01*
X102017486Y-52811905D01*
X102065105Y-52907143D01*
X102112724Y-52954762D01*
X102207962Y-53002381D01*
X102398439Y-53002381D01*
X102493677Y-52954762D01*
X102541296Y-52907143D01*
X102588915Y-52811905D01*
X102588915Y-52621429D01*
X102541296Y-52526190D01*
X102493677Y-52478571D01*
X102398439Y-52430952D01*
X123061943Y-36996666D02*
X123109562Y-37044285D01*
X123157181Y-37187142D01*
X123157181Y-37282380D01*
X123109562Y-37425238D01*
X123014324Y-37520476D01*
X122919086Y-37568095D01*
X122728610Y-37615714D01*
X122585752Y-37615714D01*
X122395276Y-37568095D01*
X122300038Y-37520476D01*
X122204800Y-37425238D01*
X122157181Y-37282380D01*
X122157181Y-37187142D01*
X122204800Y-37044285D01*
X122252419Y-36996666D01*
X123157181Y-36520476D02*
X123157181Y-36330000D01*
X123109562Y-36234761D01*
X123061943Y-36187142D01*
X122919086Y-36091904D01*
X122728610Y-36044285D01*
X122347657Y-36044285D01*
X122252419Y-36091904D01*
X122204800Y-36139523D01*
X122157181Y-36234761D01*
X122157181Y-36425238D01*
X122204800Y-36520476D01*
X122252419Y-36568095D01*
X122347657Y-36615714D01*
X122585752Y-36615714D01*
X122680990Y-36568095D01*
X122728610Y-36520476D01*
X122776229Y-36425238D01*
X122776229Y-36234761D01*
X122728610Y-36139523D01*
X122680990Y-36091904D01*
X122585752Y-36044285D01*
X89203743Y-57945257D02*
X89251362Y-57992876D01*
X89298981Y-58135733D01*
X89298981Y-58230971D01*
X89251362Y-58373829D01*
X89156124Y-58469067D01*
X89060886Y-58516686D01*
X88870410Y-58564305D01*
X88727552Y-58564305D01*
X88537076Y-58516686D01*
X88441838Y-58469067D01*
X88346600Y-58373829D01*
X88298981Y-58230971D01*
X88298981Y-58135733D01*
X88346600Y-57992876D01*
X88394219Y-57945257D01*
X89298981Y-56992876D02*
X89298981Y-57564305D01*
X89298981Y-57278591D02*
X88298981Y-57278591D01*
X88441838Y-57373829D01*
X88537076Y-57469067D01*
X88584695Y-57564305D01*
X88298981Y-56373829D02*
X88298981Y-56278590D01*
X88346600Y-56183352D01*
X88394219Y-56135733D01*
X88489457Y-56088114D01*
X88679933Y-56040495D01*
X88918029Y-56040495D01*
X89108505Y-56088114D01*
X89203743Y-56135733D01*
X89251362Y-56183352D01*
X89298981Y-56278590D01*
X89298981Y-56373829D01*
X89251362Y-56469067D01*
X89203743Y-56516686D01*
X89108505Y-56564305D01*
X88918029Y-56611924D01*
X88679933Y-56611924D01*
X88489457Y-56564305D01*
X88394219Y-56516686D01*
X88346600Y-56469067D01*
X88298981Y-56373829D01*
X88993743Y-49986143D02*
X88946124Y-50033762D01*
X88803267Y-50081381D01*
X88708029Y-50081381D01*
X88565171Y-50033762D01*
X88469933Y-49938524D01*
X88422314Y-49843286D01*
X88374695Y-49652810D01*
X88374695Y-49509952D01*
X88422314Y-49319476D01*
X88469933Y-49224238D01*
X88565171Y-49129000D01*
X88708029Y-49081381D01*
X88803267Y-49081381D01*
X88946124Y-49129000D01*
X88993743Y-49176619D01*
X89946124Y-50081381D02*
X89374695Y-50081381D01*
X89660409Y-50081381D02*
X89660409Y-49081381D01*
X89565171Y-49224238D01*
X89469933Y-49319476D01*
X89374695Y-49367095D01*
X90898505Y-50081381D02*
X90327076Y-50081381D01*
X90612790Y-50081381D02*
X90612790Y-49081381D01*
X90517552Y-49224238D01*
X90422314Y-49319476D01*
X90327076Y-49367095D01*
X121226343Y-51743943D02*
X121178724Y-51791562D01*
X121035867Y-51839181D01*
X120940629Y-51839181D01*
X120797771Y-51791562D01*
X120702533Y-51696324D01*
X120654914Y-51601086D01*
X120607295Y-51410610D01*
X120607295Y-51267752D01*
X120654914Y-51077276D01*
X120702533Y-50982038D01*
X120797771Y-50886800D01*
X120940629Y-50839181D01*
X121035867Y-50839181D01*
X121178724Y-50886800D01*
X121226343Y-50934419D01*
X122178724Y-51839181D02*
X121607295Y-51839181D01*
X121893009Y-51839181D02*
X121893009Y-50839181D01*
X121797771Y-50982038D01*
X121702533Y-51077276D01*
X121607295Y-51124895D01*
X122559676Y-50934419D02*
X122607295Y-50886800D01*
X122702533Y-50839181D01*
X122940629Y-50839181D01*
X123035867Y-50886800D01*
X123083486Y-50934419D01*
X123131105Y-51029657D01*
X123131105Y-51124895D01*
X123083486Y-51267752D01*
X122512057Y-51839181D01*
X123131105Y-51839181D01*
X127024343Y-58250057D02*
X127071962Y-58297676D01*
X127119581Y-58440533D01*
X127119581Y-58535771D01*
X127071962Y-58678629D01*
X126976724Y-58773867D01*
X126881486Y-58821486D01*
X126691010Y-58869105D01*
X126548152Y-58869105D01*
X126357676Y-58821486D01*
X126262438Y-58773867D01*
X126167200Y-58678629D01*
X126119581Y-58535771D01*
X126119581Y-58440533D01*
X126167200Y-58297676D01*
X126214819Y-58250057D01*
X127119581Y-57297676D02*
X127119581Y-57869105D01*
X127119581Y-57583391D02*
X126119581Y-57583391D01*
X126262438Y-57678629D01*
X126357676Y-57773867D01*
X126405295Y-57869105D01*
X126119581Y-56964343D02*
X126119581Y-56345295D01*
X126500533Y-56678629D01*
X126500533Y-56535771D01*
X126548152Y-56440533D01*
X126595771Y-56392914D01*
X126691010Y-56345295D01*
X126929105Y-56345295D01*
X127024343Y-56392914D01*
X127071962Y-56440533D01*
X127119581Y-56535771D01*
X127119581Y-56821486D01*
X127071962Y-56916724D01*
X127024343Y-56964343D01*
X89146143Y-44301743D02*
X89098524Y-44349362D01*
X88955667Y-44396981D01*
X88860429Y-44396981D01*
X88717571Y-44349362D01*
X88622333Y-44254124D01*
X88574714Y-44158886D01*
X88527095Y-43968410D01*
X88527095Y-43825552D01*
X88574714Y-43635076D01*
X88622333Y-43539838D01*
X88717571Y-43444600D01*
X88860429Y-43396981D01*
X88955667Y-43396981D01*
X89098524Y-43444600D01*
X89146143Y-43492219D01*
X90098524Y-44396981D02*
X89527095Y-44396981D01*
X89812809Y-44396981D02*
X89812809Y-43396981D01*
X89717571Y-43539838D01*
X89622333Y-43635076D01*
X89527095Y-43682695D01*
X90955667Y-43730314D02*
X90955667Y-44396981D01*
X90717571Y-43349362D02*
X90479476Y-44063648D01*
X91098524Y-44063648D01*
X89120743Y-46049143D02*
X89073124Y-46096762D01*
X88930267Y-46144381D01*
X88835029Y-46144381D01*
X88692171Y-46096762D01*
X88596933Y-46001524D01*
X88549314Y-45906286D01*
X88501695Y-45715810D01*
X88501695Y-45572952D01*
X88549314Y-45382476D01*
X88596933Y-45287238D01*
X88692171Y-45192000D01*
X88835029Y-45144381D01*
X88930267Y-45144381D01*
X89073124Y-45192000D01*
X89120743Y-45239619D01*
X90073124Y-46144381D02*
X89501695Y-46144381D01*
X89787409Y-46144381D02*
X89787409Y-45144381D01*
X89692171Y-45287238D01*
X89596933Y-45382476D01*
X89501695Y-45430095D01*
X90406457Y-45144381D02*
X91073124Y-45144381D01*
X90644552Y-46144381D01*
X88968343Y-48314943D02*
X88920724Y-48362562D01*
X88777867Y-48410181D01*
X88682629Y-48410181D01*
X88539771Y-48362562D01*
X88444533Y-48267324D01*
X88396914Y-48172086D01*
X88349295Y-47981610D01*
X88349295Y-47838752D01*
X88396914Y-47648276D01*
X88444533Y-47553038D01*
X88539771Y-47457800D01*
X88682629Y-47410181D01*
X88777867Y-47410181D01*
X88920724Y-47457800D01*
X88968343Y-47505419D01*
X89920724Y-48410181D02*
X89349295Y-48410181D01*
X89635009Y-48410181D02*
X89635009Y-47410181D01*
X89539771Y-47553038D01*
X89444533Y-47648276D01*
X89349295Y-47695895D01*
X90492152Y-47838752D02*
X90396914Y-47791133D01*
X90349295Y-47743514D01*
X90301676Y-47648276D01*
X90301676Y-47600657D01*
X90349295Y-47505419D01*
X90396914Y-47457800D01*
X90492152Y-47410181D01*
X90682629Y-47410181D01*
X90777867Y-47457800D01*
X90825486Y-47505419D01*
X90873105Y-47600657D01*
X90873105Y-47648276D01*
X90825486Y-47743514D01*
X90777867Y-47791133D01*
X90682629Y-47838752D01*
X90492152Y-47838752D01*
X90396914Y-47886371D01*
X90349295Y-47933990D01*
X90301676Y-48029229D01*
X90301676Y-48219705D01*
X90349295Y-48314943D01*
X90396914Y-48362562D01*
X90492152Y-48410181D01*
X90682629Y-48410181D01*
X90777867Y-48362562D01*
X90825486Y-48314943D01*
X90873105Y-48219705D01*
X90873105Y-48029229D01*
X90825486Y-47933990D01*
X90777867Y-47886371D01*
X90682629Y-47838752D01*
X117453743Y-34272457D02*
X117501362Y-34320076D01*
X117548981Y-34462933D01*
X117548981Y-34558171D01*
X117501362Y-34701029D01*
X117406124Y-34796267D01*
X117310886Y-34843886D01*
X117120410Y-34891505D01*
X116977552Y-34891505D01*
X116787076Y-34843886D01*
X116691838Y-34796267D01*
X116596600Y-34701029D01*
X116548981Y-34558171D01*
X116548981Y-34462933D01*
X116596600Y-34320076D01*
X116644219Y-34272457D01*
X117548981Y-33320076D02*
X117548981Y-33891505D01*
X117548981Y-33605791D02*
X116548981Y-33605791D01*
X116691838Y-33701029D01*
X116787076Y-33796267D01*
X116834695Y-33891505D01*
X117548981Y-32843886D02*
X117548981Y-32653410D01*
X117501362Y-32558171D01*
X117453743Y-32510552D01*
X117310886Y-32415314D01*
X117120410Y-32367695D01*
X116739457Y-32367695D01*
X116644219Y-32415314D01*
X116596600Y-32462933D01*
X116548981Y-32558171D01*
X116548981Y-32748648D01*
X116596600Y-32843886D01*
X116644219Y-32891505D01*
X116739457Y-32939124D01*
X116977552Y-32939124D01*
X117072790Y-32891505D01*
X117120410Y-32843886D01*
X117168029Y-32748648D01*
X117168029Y-32558171D01*
X117120410Y-32462933D01*
X117072790Y-32415314D01*
X116977552Y-32367695D01*
X100328943Y-55938657D02*
X100376562Y-55986276D01*
X100424181Y-56129133D01*
X100424181Y-56224371D01*
X100376562Y-56367229D01*
X100281324Y-56462467D01*
X100186086Y-56510086D01*
X99995610Y-56557705D01*
X99852752Y-56557705D01*
X99662276Y-56510086D01*
X99567038Y-56462467D01*
X99471800Y-56367229D01*
X99424181Y-56224371D01*
X99424181Y-56129133D01*
X99471800Y-55986276D01*
X99519419Y-55938657D01*
X99519419Y-55557705D02*
X99471800Y-55510086D01*
X99424181Y-55414848D01*
X99424181Y-55176752D01*
X99471800Y-55081514D01*
X99519419Y-55033895D01*
X99614657Y-54986276D01*
X99709895Y-54986276D01*
X99852752Y-55033895D01*
X100424181Y-55605324D01*
X100424181Y-54986276D01*
X99424181Y-54367229D02*
X99424181Y-54271990D01*
X99471800Y-54176752D01*
X99519419Y-54129133D01*
X99614657Y-54081514D01*
X99805133Y-54033895D01*
X100043229Y-54033895D01*
X100233705Y-54081514D01*
X100328943Y-54129133D01*
X100376562Y-54176752D01*
X100424181Y-54271990D01*
X100424181Y-54367229D01*
X100376562Y-54462467D01*
X100328943Y-54510086D01*
X100233705Y-54557705D01*
X100043229Y-54605324D01*
X99805133Y-54605324D01*
X99614657Y-54557705D01*
X99519419Y-54510086D01*
X99471800Y-54462467D01*
X99424181Y-54367229D01*
X105104143Y-40089057D02*
X105151762Y-40136676D01*
X105199381Y-40279533D01*
X105199381Y-40374771D01*
X105151762Y-40517629D01*
X105056524Y-40612867D01*
X104961286Y-40660486D01*
X104770810Y-40708105D01*
X104627952Y-40708105D01*
X104437476Y-40660486D01*
X104342238Y-40612867D01*
X104247000Y-40517629D01*
X104199381Y-40374771D01*
X104199381Y-40279533D01*
X104247000Y-40136676D01*
X104294619Y-40089057D01*
X104294619Y-39708105D02*
X104247000Y-39660486D01*
X104199381Y-39565248D01*
X104199381Y-39327152D01*
X104247000Y-39231914D01*
X104294619Y-39184295D01*
X104389857Y-39136676D01*
X104485095Y-39136676D01*
X104627952Y-39184295D01*
X105199381Y-39755724D01*
X105199381Y-39136676D01*
X105199381Y-38184295D02*
X105199381Y-38755724D01*
X105199381Y-38470010D02*
X104199381Y-38470010D01*
X104342238Y-38565248D01*
X104437476Y-38660486D01*
X104485095Y-38755724D01*
X101363543Y-45287143D02*
X101315924Y-45334762D01*
X101173067Y-45382381D01*
X101077829Y-45382381D01*
X100934971Y-45334762D01*
X100839733Y-45239524D01*
X100792114Y-45144286D01*
X100744495Y-44953810D01*
X100744495Y-44810952D01*
X100792114Y-44620476D01*
X100839733Y-44525238D01*
X100934971Y-44430000D01*
X101077829Y-44382381D01*
X101173067Y-44382381D01*
X101315924Y-44430000D01*
X101363543Y-44477619D01*
X101744495Y-44477619D02*
X101792114Y-44430000D01*
X101887352Y-44382381D01*
X102125448Y-44382381D01*
X102220686Y-44430000D01*
X102268305Y-44477619D01*
X102315924Y-44572857D01*
X102315924Y-44668095D01*
X102268305Y-44810952D01*
X101696876Y-45382381D01*
X102315924Y-45382381D01*
X102696876Y-44477619D02*
X102744495Y-44430000D01*
X102839733Y-44382381D01*
X103077829Y-44382381D01*
X103173067Y-44430000D01*
X103220686Y-44477619D01*
X103268305Y-44572857D01*
X103268305Y-44668095D01*
X103220686Y-44810952D01*
X102649257Y-45382381D01*
X103268305Y-45382381D01*
X116178543Y-54338457D02*
X116226162Y-54386076D01*
X116273781Y-54528933D01*
X116273781Y-54624171D01*
X116226162Y-54767029D01*
X116130924Y-54862267D01*
X116035686Y-54909886D01*
X115845210Y-54957505D01*
X115702352Y-54957505D01*
X115511876Y-54909886D01*
X115416638Y-54862267D01*
X115321400Y-54767029D01*
X115273781Y-54624171D01*
X115273781Y-54528933D01*
X115321400Y-54386076D01*
X115369019Y-54338457D01*
X115369019Y-53957505D02*
X115321400Y-53909886D01*
X115273781Y-53814648D01*
X115273781Y-53576552D01*
X115321400Y-53481314D01*
X115369019Y-53433695D01*
X115464257Y-53386076D01*
X115559495Y-53386076D01*
X115702352Y-53433695D01*
X116273781Y-54005124D01*
X116273781Y-53386076D01*
X115273781Y-53052743D02*
X115273781Y-52433695D01*
X115654733Y-52767029D01*
X115654733Y-52624171D01*
X115702352Y-52528933D01*
X115749971Y-52481314D01*
X115845210Y-52433695D01*
X116083305Y-52433695D01*
X116178543Y-52481314D01*
X116226162Y-52528933D01*
X116273781Y-52624171D01*
X116273781Y-52909886D01*
X116226162Y-53005124D01*
X116178543Y-53052743D01*
X118058143Y-54287657D02*
X118105762Y-54335276D01*
X118153381Y-54478133D01*
X118153381Y-54573371D01*
X118105762Y-54716229D01*
X118010524Y-54811467D01*
X117915286Y-54859086D01*
X117724810Y-54906705D01*
X117581952Y-54906705D01*
X117391476Y-54859086D01*
X117296238Y-54811467D01*
X117201000Y-54716229D01*
X117153381Y-54573371D01*
X117153381Y-54478133D01*
X117201000Y-54335276D01*
X117248619Y-54287657D01*
X117248619Y-53906705D02*
X117201000Y-53859086D01*
X117153381Y-53763848D01*
X117153381Y-53525752D01*
X117201000Y-53430514D01*
X117248619Y-53382895D01*
X117343857Y-53335276D01*
X117439095Y-53335276D01*
X117581952Y-53382895D01*
X118153381Y-53954324D01*
X118153381Y-53335276D01*
X117486714Y-52478133D02*
X118153381Y-52478133D01*
X117105762Y-52716229D02*
X117820048Y-52954324D01*
X117820048Y-52335276D01*
X92530705Y-54627781D02*
X92530705Y-53627781D01*
X92768800Y-53627781D01*
X92911658Y-53675400D01*
X93006896Y-53770638D01*
X93054515Y-53865876D01*
X93102134Y-54056352D01*
X93102134Y-54199210D01*
X93054515Y-54389686D01*
X93006896Y-54484924D01*
X92911658Y-54580162D01*
X92768800Y-54627781D01*
X92530705Y-54627781D01*
X93435467Y-53627781D02*
X94054515Y-53627781D01*
X93721181Y-54008733D01*
X93864039Y-54008733D01*
X93959277Y-54056352D01*
X94006896Y-54103971D01*
X94054515Y-54199210D01*
X94054515Y-54437305D01*
X94006896Y-54532543D01*
X93959277Y-54580162D01*
X93864039Y-54627781D01*
X93578324Y-54627781D01*
X93483086Y-54580162D01*
X93435467Y-54532543D01*
X84758305Y-49053381D02*
X84758305Y-48053381D01*
X84996400Y-48053381D01*
X85139258Y-48101000D01*
X85234496Y-48196238D01*
X85282115Y-48291476D01*
X85329734Y-48481952D01*
X85329734Y-48624810D01*
X85282115Y-48815286D01*
X85234496Y-48910524D01*
X85139258Y-49005762D01*
X84996400Y-49053381D01*
X84758305Y-49053381D01*
X86186877Y-48386714D02*
X86186877Y-49053381D01*
X85948781Y-48005762D02*
X85710686Y-48720048D01*
X86329734Y-48720048D01*
X121105705Y-50137781D02*
X121105705Y-49137781D01*
X121343800Y-49137781D01*
X121486658Y-49185400D01*
X121581896Y-49280638D01*
X121629515Y-49375876D01*
X121677134Y-49566352D01*
X121677134Y-49709210D01*
X121629515Y-49899686D01*
X121581896Y-49994924D01*
X121486658Y-50090162D01*
X121343800Y-50137781D01*
X121105705Y-50137781D01*
X122581896Y-49137781D02*
X122105705Y-49137781D01*
X122058086Y-49613971D01*
X122105705Y-49566352D01*
X122200943Y-49518733D01*
X122439039Y-49518733D01*
X122534277Y-49566352D01*
X122581896Y-49613971D01*
X122629515Y-49709210D01*
X122629515Y-49947305D01*
X122581896Y-50042543D01*
X122534277Y-50090162D01*
X122439039Y-50137781D01*
X122200943Y-50137781D01*
X122105705Y-50090162D01*
X122058086Y-50042543D01*
X121664505Y-53465181D02*
X121664505Y-52465181D01*
X121902600Y-52465181D01*
X122045458Y-52512800D01*
X122140696Y-52608038D01*
X122188315Y-52703276D01*
X122235934Y-52893752D01*
X122235934Y-53036610D01*
X122188315Y-53227086D01*
X122140696Y-53322324D01*
X122045458Y-53417562D01*
X121902600Y-53465181D01*
X121664505Y-53465181D01*
X123093077Y-52465181D02*
X122902600Y-52465181D01*
X122807362Y-52512800D01*
X122759743Y-52560419D01*
X122664505Y-52703276D01*
X122616886Y-52893752D01*
X122616886Y-53274705D01*
X122664505Y-53369943D01*
X122712124Y-53417562D01*
X122807362Y-53465181D01*
X122997839Y-53465181D01*
X123093077Y-53417562D01*
X123140696Y-53369943D01*
X123188315Y-53274705D01*
X123188315Y-53036610D01*
X123140696Y-52941371D01*
X123093077Y-52893752D01*
X122997839Y-52846133D01*
X122807362Y-52846133D01*
X122712124Y-52893752D01*
X122664505Y-52941371D01*
X122616886Y-53036610D01*
X92556105Y-50335181D02*
X92556105Y-49335181D01*
X92794200Y-49335181D01*
X92937058Y-49382800D01*
X93032296Y-49478038D01*
X93079915Y-49573276D01*
X93127534Y-49763752D01*
X93127534Y-49906610D01*
X93079915Y-50097086D01*
X93032296Y-50192324D01*
X92937058Y-50287562D01*
X92794200Y-50335181D01*
X92556105Y-50335181D01*
X93460867Y-49335181D02*
X94127534Y-49335181D01*
X93698962Y-50335181D01*
X84529705Y-54361981D02*
X84529705Y-53361981D01*
X84767800Y-53361981D01*
X84910658Y-53409600D01*
X85005896Y-53504838D01*
X85053515Y-53600076D01*
X85101134Y-53790552D01*
X85101134Y-53933410D01*
X85053515Y-54123886D01*
X85005896Y-54219124D01*
X84910658Y-54314362D01*
X84767800Y-54361981D01*
X84529705Y-54361981D01*
X85672562Y-53790552D02*
X85577324Y-53742933D01*
X85529705Y-53695314D01*
X85482086Y-53600076D01*
X85482086Y-53552457D01*
X85529705Y-53457219D01*
X85577324Y-53409600D01*
X85672562Y-53361981D01*
X85863039Y-53361981D01*
X85958277Y-53409600D01*
X86005896Y-53457219D01*
X86053515Y-53552457D01*
X86053515Y-53600076D01*
X86005896Y-53695314D01*
X85958277Y-53742933D01*
X85863039Y-53790552D01*
X85672562Y-53790552D01*
X85577324Y-53838171D01*
X85529705Y-53885790D01*
X85482086Y-53981029D01*
X85482086Y-54171505D01*
X85529705Y-54266743D01*
X85577324Y-54314362D01*
X85672562Y-54361981D01*
X85863039Y-54361981D01*
X85958277Y-54314362D01*
X86005896Y-54266743D01*
X86053515Y-54171505D01*
X86053515Y-53981029D01*
X86005896Y-53885790D01*
X85958277Y-53838171D01*
X85863039Y-53790552D01*
X131979581Y-36985533D02*
X132693867Y-36985533D01*
X132836724Y-37033153D01*
X132931962Y-37128391D01*
X132979581Y-37271248D01*
X132979581Y-37366486D01*
X132979581Y-35985533D02*
X132979581Y-36556962D01*
X132979581Y-36271248D02*
X131979581Y-36271248D01*
X132122438Y-36366486D01*
X132217676Y-36461724D01*
X132265295Y-36556962D01*
X130509581Y-37087133D02*
X131223867Y-37087133D01*
X131366724Y-37134753D01*
X131461962Y-37229991D01*
X131509581Y-37372848D01*
X131509581Y-37468086D01*
X130604819Y-36658562D02*
X130557200Y-36610943D01*
X130509581Y-36515705D01*
X130509581Y-36277609D01*
X130557200Y-36182371D01*
X130604819Y-36134752D01*
X130700057Y-36087133D01*
X130795295Y-36087133D01*
X130938152Y-36134752D01*
X131509581Y-36706181D01*
X131509581Y-36087133D01*
X81200667Y-45985181D02*
X81200667Y-46699467D01*
X81153047Y-46842324D01*
X81057809Y-46937562D01*
X80914952Y-46985181D01*
X80819714Y-46985181D01*
X81581619Y-45985181D02*
X82200667Y-45985181D01*
X81867333Y-46366133D01*
X82010191Y-46366133D01*
X82105429Y-46413752D01*
X82153048Y-46461371D01*
X82200667Y-46556610D01*
X82200667Y-46794705D01*
X82153048Y-46889943D01*
X82105429Y-46937562D01*
X82010191Y-46985181D01*
X81724476Y-46985181D01*
X81629238Y-46937562D01*
X81581619Y-46889943D01*
X81200667Y-41463981D02*
X81200667Y-42178267D01*
X81153047Y-42321124D01*
X81057809Y-42416362D01*
X80914952Y-42463981D01*
X80819714Y-42463981D01*
X82105429Y-41797314D02*
X82105429Y-42463981D01*
X81867333Y-41416362D02*
X81629238Y-42130648D01*
X82248286Y-42130648D01*
X129968667Y-46670981D02*
X129968667Y-47385267D01*
X129921047Y-47528124D01*
X129825809Y-47623362D01*
X129682952Y-47670981D01*
X129587714Y-47670981D01*
X130921048Y-46670981D02*
X130444857Y-46670981D01*
X130397238Y-47147171D01*
X130444857Y-47099552D01*
X130540095Y-47051933D01*
X130778191Y-47051933D01*
X130873429Y-47099552D01*
X130921048Y-47147171D01*
X130968667Y-47242410D01*
X130968667Y-47480505D01*
X130921048Y-47575743D01*
X130873429Y-47623362D01*
X130778191Y-47670981D01*
X130540095Y-47670981D01*
X130444857Y-47623362D01*
X130397238Y-47575743D01*
X129816267Y-42327581D02*
X129816267Y-43041867D01*
X129768647Y-43184724D01*
X129673409Y-43279962D01*
X129530552Y-43327581D01*
X129435314Y-43327581D01*
X130721029Y-42327581D02*
X130530552Y-42327581D01*
X130435314Y-42375200D01*
X130387695Y-42422819D01*
X130292457Y-42565676D01*
X130244838Y-42756152D01*
X130244838Y-43137105D01*
X130292457Y-43232343D01*
X130340076Y-43279962D01*
X130435314Y-43327581D01*
X130625791Y-43327581D01*
X130721029Y-43279962D01*
X130768648Y-43232343D01*
X130816267Y-43137105D01*
X130816267Y-42899010D01*
X130768648Y-42803771D01*
X130721029Y-42756152D01*
X130625791Y-42708533D01*
X130435314Y-42708533D01*
X130340076Y-42756152D01*
X130292457Y-42803771D01*
X130244838Y-42899010D01*
X102814381Y-37428466D02*
X102814381Y-37904657D01*
X101814381Y-37904657D01*
X102814381Y-36571323D02*
X102814381Y-37142752D01*
X102814381Y-36857038D02*
X101814381Y-36857038D01*
X101957238Y-36952276D01*
X102052476Y-37047514D01*
X102100095Y-37142752D01*
X126147534Y-39398781D02*
X125671343Y-39398781D01*
X125671343Y-38398781D01*
X126433248Y-38494019D02*
X126480867Y-38446400D01*
X126576105Y-38398781D01*
X126814201Y-38398781D01*
X126909439Y-38446400D01*
X126957058Y-38494019D01*
X127004677Y-38589257D01*
X127004677Y-38684495D01*
X126957058Y-38827352D01*
X126385629Y-39398781D01*
X127004677Y-39398781D01*
X91714581Y-37504666D02*
X91714581Y-37980857D01*
X90714581Y-37980857D01*
X90714581Y-37266571D02*
X90714581Y-36647523D01*
X91095533Y-36980857D01*
X91095533Y-36837999D01*
X91143152Y-36742761D01*
X91190771Y-36695142D01*
X91286010Y-36647523D01*
X91524105Y-36647523D01*
X91619343Y-36695142D01*
X91666962Y-36742761D01*
X91714581Y-36837999D01*
X91714581Y-37123714D01*
X91666962Y-37218952D01*
X91619343Y-37266571D01*
X121931134Y-48786781D02*
X121597800Y-48310590D01*
X121359705Y-48786781D02*
X121359705Y-47786781D01*
X121740658Y-47786781D01*
X121835896Y-47834400D01*
X121883515Y-47882019D01*
X121931134Y-47977257D01*
X121931134Y-48120114D01*
X121883515Y-48215352D01*
X121835896Y-48262971D01*
X121740658Y-48310590D01*
X121359705Y-48310590D01*
X122264467Y-47786781D02*
X122883515Y-47786781D01*
X122550181Y-48167733D01*
X122693039Y-48167733D01*
X122788277Y-48215352D01*
X122835896Y-48262971D01*
X122883515Y-48358210D01*
X122883515Y-48596305D01*
X122835896Y-48691543D01*
X122788277Y-48739162D01*
X122693039Y-48786781D01*
X122407324Y-48786781D01*
X122312086Y-48739162D01*
X122264467Y-48691543D01*
X101012781Y-55386266D02*
X100536590Y-55719600D01*
X101012781Y-55957695D02*
X100012781Y-55957695D01*
X100012781Y-55576742D01*
X100060400Y-55481504D01*
X100108019Y-55433885D01*
X100203257Y-55386266D01*
X100346114Y-55386266D01*
X100441352Y-55433885D01*
X100488971Y-55481504D01*
X100536590Y-55576742D01*
X100536590Y-55957695D01*
X100346114Y-54529123D02*
X101012781Y-54529123D01*
X99965162Y-54767219D02*
X100679448Y-55005314D01*
X100679448Y-54386266D01*
X124750534Y-34842181D02*
X124417200Y-34365990D01*
X124179105Y-34842181D02*
X124179105Y-33842181D01*
X124560058Y-33842181D01*
X124655296Y-33889800D01*
X124702915Y-33937419D01*
X124750534Y-34032657D01*
X124750534Y-34175514D01*
X124702915Y-34270752D01*
X124655296Y-34318371D01*
X124560058Y-34365990D01*
X124179105Y-34365990D01*
X125655296Y-33842181D02*
X125179105Y-33842181D01*
X125131486Y-34318371D01*
X125179105Y-34270752D01*
X125274343Y-34223133D01*
X125512439Y-34223133D01*
X125607677Y-34270752D01*
X125655296Y-34318371D01*
X125702915Y-34413610D01*
X125702915Y-34651705D01*
X125655296Y-34746943D01*
X125607677Y-34794562D01*
X125512439Y-34842181D01*
X125274343Y-34842181D01*
X125179105Y-34794562D01*
X125131486Y-34746943D01*
X98879181Y-55487866D02*
X98402990Y-55821200D01*
X98879181Y-56059295D02*
X97879181Y-56059295D01*
X97879181Y-55678342D01*
X97926800Y-55583104D01*
X97974419Y-55535485D01*
X98069657Y-55487866D01*
X98212514Y-55487866D01*
X98307752Y-55535485D01*
X98355371Y-55583104D01*
X98402990Y-55678342D01*
X98402990Y-56059295D01*
X97879181Y-54630723D02*
X97879181Y-54821200D01*
X97926800Y-54916438D01*
X97974419Y-54964057D01*
X98117276Y-55059295D01*
X98307752Y-55106914D01*
X98688705Y-55106914D01*
X98783943Y-55059295D01*
X98831562Y-55011676D01*
X98879181Y-54916438D01*
X98879181Y-54725961D01*
X98831562Y-54630723D01*
X98783943Y-54583104D01*
X98688705Y-54535485D01*
X98450610Y-54535485D01*
X98355371Y-54583104D01*
X98307752Y-54630723D01*
X98260133Y-54725961D01*
X98260133Y-54916438D01*
X98307752Y-55011676D01*
X98355371Y-55059295D01*
X98450610Y-55106914D01*
X109140781Y-54979866D02*
X108664590Y-55313200D01*
X109140781Y-55551295D02*
X108140781Y-55551295D01*
X108140781Y-55170342D01*
X108188400Y-55075104D01*
X108236019Y-55027485D01*
X108331257Y-54979866D01*
X108474114Y-54979866D01*
X108569352Y-55027485D01*
X108616971Y-55075104D01*
X108664590Y-55170342D01*
X108664590Y-55551295D01*
X108140781Y-54646533D02*
X108140781Y-53979866D01*
X109140781Y-54408438D01*
X101687334Y-49015381D02*
X101354000Y-48539190D01*
X101115905Y-49015381D02*
X101115905Y-48015381D01*
X101496858Y-48015381D01*
X101592096Y-48063000D01*
X101639715Y-48110619D01*
X101687334Y-48205857D01*
X101687334Y-48348714D01*
X101639715Y-48443952D01*
X101592096Y-48491571D01*
X101496858Y-48539190D01*
X101115905Y-48539190D01*
X102163524Y-49015381D02*
X102354000Y-49015381D01*
X102449239Y-48967762D01*
X102496858Y-48920143D01*
X102592096Y-48777286D01*
X102639715Y-48586810D01*
X102639715Y-48205857D01*
X102592096Y-48110619D01*
X102544477Y-48063000D01*
X102449239Y-48015381D01*
X102258762Y-48015381D01*
X102163524Y-48063000D01*
X102115905Y-48110619D01*
X102068286Y-48205857D01*
X102068286Y-48443952D01*
X102115905Y-48539190D01*
X102163524Y-48586810D01*
X102258762Y-48634429D01*
X102449239Y-48634429D01*
X102544477Y-48586810D01*
X102592096Y-48539190D01*
X102639715Y-48443952D01*
X101211143Y-50920381D02*
X100877809Y-50444190D01*
X100639714Y-50920381D02*
X100639714Y-49920381D01*
X101020667Y-49920381D01*
X101115905Y-49968000D01*
X101163524Y-50015619D01*
X101211143Y-50110857D01*
X101211143Y-50253714D01*
X101163524Y-50348952D01*
X101115905Y-50396571D01*
X101020667Y-50444190D01*
X100639714Y-50444190D01*
X102163524Y-50920381D02*
X101592095Y-50920381D01*
X101877809Y-50920381D02*
X101877809Y-49920381D01*
X101782571Y-50063238D01*
X101687333Y-50158476D01*
X101592095Y-50206095D01*
X102782571Y-49920381D02*
X102877810Y-49920381D01*
X102973048Y-49968000D01*
X103020667Y-50015619D01*
X103068286Y-50110857D01*
X103115905Y-50301333D01*
X103115905Y-50539429D01*
X103068286Y-50729905D01*
X103020667Y-50825143D01*
X102973048Y-50872762D01*
X102877810Y-50920381D01*
X102782571Y-50920381D01*
X102687333Y-50872762D01*
X102639714Y-50825143D01*
X102592095Y-50729905D01*
X102544476Y-50539429D01*
X102544476Y-50301333D01*
X102592095Y-50110857D01*
X102639714Y-50015619D01*
X102687333Y-49968000D01*
X102782571Y-49920381D01*
X113961943Y-57426381D02*
X113628609Y-56950190D01*
X113390514Y-57426381D02*
X113390514Y-56426381D01*
X113771467Y-56426381D01*
X113866705Y-56474000D01*
X113914324Y-56521619D01*
X113961943Y-56616857D01*
X113961943Y-56759714D01*
X113914324Y-56854952D01*
X113866705Y-56902571D01*
X113771467Y-56950190D01*
X113390514Y-56950190D01*
X114914324Y-57426381D02*
X114342895Y-57426381D01*
X114628609Y-57426381D02*
X114628609Y-56426381D01*
X114533371Y-56569238D01*
X114438133Y-56664476D01*
X114342895Y-56712095D01*
X115866705Y-57426381D02*
X115295276Y-57426381D01*
X115580990Y-57426381D02*
X115580990Y-56426381D01*
X115485752Y-56569238D01*
X115390514Y-56664476D01*
X115295276Y-56712095D01*
X120134143Y-60877181D02*
X119800809Y-60400990D01*
X119562714Y-60877181D02*
X119562714Y-59877181D01*
X119943667Y-59877181D01*
X120038905Y-59924800D01*
X120086524Y-59972419D01*
X120134143Y-60067657D01*
X120134143Y-60210514D01*
X120086524Y-60305752D01*
X120038905Y-60353371D01*
X119943667Y-60400990D01*
X119562714Y-60400990D01*
X121086524Y-60877181D02*
X120515095Y-60877181D01*
X120800809Y-60877181D02*
X120800809Y-59877181D01*
X120705571Y-60020038D01*
X120610333Y-60115276D01*
X120515095Y-60162895D01*
X121467476Y-59972419D02*
X121515095Y-59924800D01*
X121610333Y-59877181D01*
X121848429Y-59877181D01*
X121943667Y-59924800D01*
X121991286Y-59972419D01*
X122038905Y-60067657D01*
X122038905Y-60162895D01*
X121991286Y-60305752D01*
X121419857Y-60877181D01*
X122038905Y-60877181D01*
X113961943Y-55699181D02*
X113628609Y-55222990D01*
X113390514Y-55699181D02*
X113390514Y-54699181D01*
X113771467Y-54699181D01*
X113866705Y-54746800D01*
X113914324Y-54794419D01*
X113961943Y-54889657D01*
X113961943Y-55032514D01*
X113914324Y-55127752D01*
X113866705Y-55175371D01*
X113771467Y-55222990D01*
X113390514Y-55222990D01*
X114914324Y-55699181D02*
X114342895Y-55699181D01*
X114628609Y-55699181D02*
X114628609Y-54699181D01*
X114533371Y-54842038D01*
X114438133Y-54937276D01*
X114342895Y-54984895D01*
X115247657Y-54699181D02*
X115866705Y-54699181D01*
X115533371Y-55080133D01*
X115676229Y-55080133D01*
X115771467Y-55127752D01*
X115819086Y-55175371D01*
X115866705Y-55270610D01*
X115866705Y-55508705D01*
X115819086Y-55603943D01*
X115771467Y-55651562D01*
X115676229Y-55699181D01*
X115390514Y-55699181D01*
X115295276Y-55651562D01*
X115247657Y-55603943D01*
X121353343Y-52088781D02*
X121020009Y-51612590D01*
X120781914Y-52088781D02*
X120781914Y-51088781D01*
X121162867Y-51088781D01*
X121258105Y-51136400D01*
X121305724Y-51184019D01*
X121353343Y-51279257D01*
X121353343Y-51422114D01*
X121305724Y-51517352D01*
X121258105Y-51564971D01*
X121162867Y-51612590D01*
X120781914Y-51612590D01*
X122305724Y-52088781D02*
X121734295Y-52088781D01*
X122020009Y-52088781D02*
X122020009Y-51088781D01*
X121924771Y-51231638D01*
X121829533Y-51326876D01*
X121734295Y-51374495D01*
X123162867Y-51422114D02*
X123162867Y-52088781D01*
X122924771Y-51041162D02*
X122686676Y-51755448D01*
X123305724Y-51755448D01*
X111955343Y-35455381D02*
X111622009Y-34979190D01*
X111383914Y-35455381D02*
X111383914Y-34455381D01*
X111764867Y-34455381D01*
X111860105Y-34503000D01*
X111907724Y-34550619D01*
X111955343Y-34645857D01*
X111955343Y-34788714D01*
X111907724Y-34883952D01*
X111860105Y-34931571D01*
X111764867Y-34979190D01*
X111383914Y-34979190D01*
X112907724Y-35455381D02*
X112336295Y-35455381D01*
X112622009Y-35455381D02*
X112622009Y-34455381D01*
X112526771Y-34598238D01*
X112431533Y-34693476D01*
X112336295Y-34741095D01*
X113812486Y-34455381D02*
X113336295Y-34455381D01*
X113288676Y-34931571D01*
X113336295Y-34883952D01*
X113431533Y-34836333D01*
X113669629Y-34836333D01*
X113764867Y-34883952D01*
X113812486Y-34931571D01*
X113860105Y-35026810D01*
X113860105Y-35264905D01*
X113812486Y-35360143D01*
X113764867Y-35407762D01*
X113669629Y-35455381D01*
X113431533Y-35455381D01*
X113336295Y-35407762D01*
X113288676Y-35360143D01*
X120108743Y-58946781D02*
X119775409Y-58470590D01*
X119537314Y-58946781D02*
X119537314Y-57946781D01*
X119918267Y-57946781D01*
X120013505Y-57994400D01*
X120061124Y-58042019D01*
X120108743Y-58137257D01*
X120108743Y-58280114D01*
X120061124Y-58375352D01*
X120013505Y-58422971D01*
X119918267Y-58470590D01*
X119537314Y-58470590D01*
X121061124Y-58946781D02*
X120489695Y-58946781D01*
X120775409Y-58946781D02*
X120775409Y-57946781D01*
X120680171Y-58089638D01*
X120584933Y-58184876D01*
X120489695Y-58232495D01*
X121918267Y-57946781D02*
X121727790Y-57946781D01*
X121632552Y-57994400D01*
X121584933Y-58042019D01*
X121489695Y-58184876D01*
X121442076Y-58375352D01*
X121442076Y-58756305D01*
X121489695Y-58851543D01*
X121537314Y-58899162D01*
X121632552Y-58946781D01*
X121823029Y-58946781D01*
X121918267Y-58899162D01*
X121965886Y-58851543D01*
X122013505Y-58756305D01*
X122013505Y-58518210D01*
X121965886Y-58422971D01*
X121918267Y-58375352D01*
X121823029Y-58327733D01*
X121632552Y-58327733D01*
X121537314Y-58375352D01*
X121489695Y-58422971D01*
X121442076Y-58518210D01*
X102678362Y-57848333D02*
X102725981Y-57705476D01*
X102725981Y-57467380D01*
X102678362Y-57372142D01*
X102630743Y-57324523D01*
X102535505Y-57276904D01*
X102440267Y-57276904D01*
X102345029Y-57324523D01*
X102297410Y-57372142D01*
X102249790Y-57467380D01*
X102202171Y-57657857D01*
X102154552Y-57753095D01*
X102106933Y-57800714D01*
X102011695Y-57848333D01*
X101916457Y-57848333D01*
X101821219Y-57800714D01*
X101773600Y-57753095D01*
X101725981Y-57657857D01*
X101725981Y-57419761D01*
X101773600Y-57276904D01*
X101725981Y-56943571D02*
X102725981Y-56705476D01*
X102011695Y-56514999D01*
X102725981Y-56324523D01*
X101725981Y-56086428D01*
X102725981Y-55181666D02*
X102725981Y-55753095D01*
X102725981Y-55467381D02*
X101725981Y-55467381D01*
X101868838Y-55562619D01*
X101964076Y-55657857D01*
X102011695Y-55753095D01*
X81318267Y-52894362D02*
X81461124Y-52941981D01*
X81699220Y-52941981D01*
X81794458Y-52894362D01*
X81842077Y-52846743D01*
X81889696Y-52751505D01*
X81889696Y-52656267D01*
X81842077Y-52561029D01*
X81794458Y-52513410D01*
X81699220Y-52465790D01*
X81508743Y-52418171D01*
X81413505Y-52370552D01*
X81365886Y-52322933D01*
X81318267Y-52227695D01*
X81318267Y-52132457D01*
X81365886Y-52037219D01*
X81413505Y-51989600D01*
X81508743Y-51941981D01*
X81746839Y-51941981D01*
X81889696Y-51989600D01*
X82223029Y-51941981D02*
X82461124Y-52941981D01*
X82651601Y-52227695D01*
X82842077Y-52941981D01*
X83080172Y-51941981D01*
X83413505Y-52037219D02*
X83461124Y-51989600D01*
X83556362Y-51941981D01*
X83794458Y-51941981D01*
X83889696Y-51989600D01*
X83937315Y-52037219D01*
X83984934Y-52132457D01*
X83984934Y-52227695D01*
X83937315Y-52370552D01*
X83365886Y-52941981D01*
X83984934Y-52941981D01*
X125563762Y-58102333D02*
X125611381Y-57959476D01*
X125611381Y-57721380D01*
X125563762Y-57626142D01*
X125516143Y-57578523D01*
X125420905Y-57530904D01*
X125325667Y-57530904D01*
X125230429Y-57578523D01*
X125182810Y-57626142D01*
X125135190Y-57721380D01*
X125087571Y-57911857D01*
X125039952Y-58007095D01*
X124992333Y-58054714D01*
X124897095Y-58102333D01*
X124801857Y-58102333D01*
X124706619Y-58054714D01*
X124659000Y-58007095D01*
X124611381Y-57911857D01*
X124611381Y-57673761D01*
X124659000Y-57530904D01*
X124611381Y-57197571D02*
X125611381Y-56959476D01*
X124897095Y-56768999D01*
X125611381Y-56578523D01*
X124611381Y-56340428D01*
X124611381Y-56054714D02*
X124611381Y-55435666D01*
X124992333Y-55769000D01*
X124992333Y-55626142D01*
X125039952Y-55530904D01*
X125087571Y-55483285D01*
X125182810Y-55435666D01*
X125420905Y-55435666D01*
X125516143Y-55483285D01*
X125563762Y-55530904D01*
X125611381Y-55626142D01*
X125611381Y-55911857D01*
X125563762Y-56007095D01*
X125516143Y-56054714D01*
X111455295Y-51352381D02*
X111455295Y-52161905D01*
X111502914Y-52257143D01*
X111550533Y-52304762D01*
X111645771Y-52352381D01*
X111836248Y-52352381D01*
X111931486Y-52304762D01*
X111979105Y-52257143D01*
X112026724Y-52161905D01*
X112026724Y-51352381D01*
X113026724Y-52352381D02*
X112455295Y-52352381D01*
X112741009Y-52352381D02*
X112741009Y-51352381D01*
X112645771Y-51495238D01*
X112550533Y-51590476D01*
X112455295Y-51638095D01*
X95072295Y-50821181D02*
X95072295Y-51630705D01*
X95119914Y-51725943D01*
X95167533Y-51773562D01*
X95262771Y-51821181D01*
X95453248Y-51821181D01*
X95548486Y-51773562D01*
X95596105Y-51725943D01*
X95643724Y-51630705D01*
X95643724Y-50821181D01*
X96548486Y-51154514D02*
X96548486Y-51821181D01*
X96310390Y-50773562D02*
X96072295Y-51487848D01*
X96691343Y-51487848D01*
X95148495Y-47036581D02*
X95148495Y-47846105D01*
X95196114Y-47941343D01*
X95243733Y-47988962D01*
X95338971Y-48036581D01*
X95529448Y-48036581D01*
X95624686Y-47988962D01*
X95672305Y-47941343D01*
X95719924Y-47846105D01*
X95719924Y-47036581D01*
X96672305Y-47036581D02*
X96196114Y-47036581D01*
X96148495Y-47512771D01*
X96196114Y-47465152D01*
X96291352Y-47417533D01*
X96529448Y-47417533D01*
X96624686Y-47465152D01*
X96672305Y-47512771D01*
X96719924Y-47608010D01*
X96719924Y-47846105D01*
X96672305Y-47941343D01*
X96624686Y-47988962D01*
X96529448Y-48036581D01*
X96291352Y-48036581D01*
X96196114Y-47988962D01*
X96148495Y-47941343D01*
X112350609Y-30881990D02*
X112350609Y-31358181D01*
X112017276Y-30358181D02*
X112350609Y-30881990D01*
X112683943Y-30358181D01*
X113541086Y-31358181D02*
X112969657Y-31358181D01*
X113255371Y-31358181D02*
X113255371Y-30358181D01*
X113160133Y-30501038D01*
X113064895Y-30596276D01*
X112969657Y-30643895D01*
M02*
